<?xml version="1.0" encoding="UTF-8"?><svg id="Layer_2" xmlns="http://www.w3.org/2000/svg" viewBox="0 0 2245 1067"><g id="Layer_1-2"><path d="M7.64,1031.33l-7.64-4.22V0H2241l4,803.19c0,283.49-393.05-32.55-522,75.69-52.91,44.41-157,147.18-271,126.16-66.92-12.34-312.66-142.74-379.82-96.65-86.42,59.31-207.59,171.62-306.9,118.7-35.35-18.84-161.08-199.82-275.56-148.41-1.26,.57-80.11,57.47-144.05,103.48-37.67,27.11-94.05,66.78-133.17,76.5-.43,.11-.86,.21-1.29,.32-68.77,16.89-141.04,6.89-203.57-27.63Z"/></g></svg>