<?xml version="1.0" encoding="UTF-8"?><svg id="Layer_2" xmlns="http://www.w3.org/2000/svg" viewBox="0 0 2250.64 1527.47"><defs><style>.cls-1{fill:#fff;}</style></defs><g id="Layer_1-2"><path class="cls-1" d="M2235.73,50.03l7.67,5.96,7.24,1460.37L9.67,1527.47,0,385.5c-2-403.07,393.27,44.33,521.46-110.21,52.59-63.4,155.96-210.04,270.11-180.71,67.01,17.22,313.66,201.4,380.5,135.53,86-84.76,206.38-245.04,306.06-170.29,35.48,26.61,162.48,283.3,276.6,209.65,1.26-.81,79.7-82.11,143.32-147.84,37.48-38.73,93.58-95.41,132.63-109.43,.43-.15,.86-.31,1.29-.46,68.65-24.36,140.99-10.49,203.76,38.28Z"/></g></svg>