<?xml version="1.0" encoding="UTF-8"?><svg id="Layer_2" xmlns="http://www.w3.org/2000/svg" viewBox="0 0 2250.2 337.16"><g id="Layer_1-2"><path d="M2242.55,11.38l7.66,1.34-.28,324.43L3.79,335.22,0,81.52c.08-89.55,393.94,10.62,523.22-23.46,53.04-13.98,157.4-46.35,271.66-39.61,67.07,3.96,313.34,45.36,380.67,30.86,86.64-18.66,208.11-54.03,307.64-37.23,35.42,5.98,161.39,63.25,276.15,47.12,1.26-.18,80.31-18.08,144.41-32.56,37.77-8.53,94.29-21.01,133.49-24.05,.43-.03,.86-.07,1.29-.1,68.93-5.28,141.37-2.05,204.03,8.9Z"/></g></svg>