<?xml version="1.0" encoding="UTF-8"?><svg id="Layer_2" xmlns="http://www.w3.org/2000/svg" xmlns:xlink="http://www.w3.org/1999/xlink" viewBox="0 0 2242 1210.48"><defs><style>.cls-1{fill:url(#linear-gradient);}</style><linearGradient id="linear-gradient" x1="0" y1="605.24" x2="2242" y2="605.24" gradientTransform="matrix(1, 0, 0, 1, 0, 0)" gradientUnits="userSpaceOnUse"><stop offset="0" stop-color="#1b1464"/><stop offset="1" stop-color="#0071ba"/></linearGradient></defs><g id="Layer_1-2"><path class="cls-1" d="M2242,1210.48H0V253.47C0,145.71,.93-45.85,183.29,12.38c20.89,6.67,109.51,124.5,193.71,98.47,26.19-8.09,125.22-72.47,177-101.25,83.51-46.43,105,90.12,250,99.23,35.79,2.25,72-72.9,142.54-90.16,53.7-13.14,186.08,115.64,200.46,118.51,68.28,13.65,63-51.64,144.85-93.42,12.25-6.25,56.42-14.37,85.52,18.57,41.94,47.46,160.91,99.34,188.8,90.17,3.76-1.24,46.83-.13,105.13-67.52,38.32-44.3,111.25-85.12,165.65-63.22,11.74,4.73,52.32,25.53,89.41,42.86,27.3,12.76,132.87,54.91,145.49,46.54,40.09-26.6,82.95-48.66,130.25-56.49l39.9-6.6V1210.48Z"/></g></svg>