<?xml version="1.0" encoding="UTF-8"?><svg id="Layer_2" xmlns="http://www.w3.org/2000/svg" viewBox="0 0 323 252"><defs><style>.cls-1,.cls-2{fill:#fff;}.cls-3{fill:#ffb6b6;}.cls-4{fill:#e4e4e4;}.cls-5{fill:#2f2e41;}.cls-2{isolation:isolate;opacity:.3;}</style></defs><g id="Layer_1-2"><g><path class="cls-4" d="M12.42,0C5.56,0,0,5.57,0,12.44V239.56c0,6.87,5.56,12.43,12.42,12.44h124.16c6.86,0,12.41-5.57,12.42-12.44V12.44c0-6.87-5.56-12.43-12.42-12.44H12.42Z"/><path class="cls-1" d="M16.43,7c-5.21,0-9.42,4.23-9.43,9.45V235.55c0,5.21,4.22,9.44,9.43,9.45h116.14c5.21,0,9.42-4.23,9.43-9.45V16.45c0-5.21-4.22-9.44-9.43-9.45H16.43Z"/><path class="cls-4" d="M129.93,53H18.07c-1.14,0-2.07-.93-2.07-2.08V23.08c0-1.15,.93-2.08,2.07-2.08h111.86c1.14,0,2.07,.93,2.07,2.08v27.84c0,1.15-.93,2.08-2.07,2.08ZM18.25,22c-.69,0-1.25,.55-1.25,1.23v27.53c0,.68,.56,1.23,1.25,1.23h112.5c.69,0,1.25-.55,1.25-1.23V23.23c0-.68-.56-1.23-1.25-1.23H18.25Z"/><path class="cls-4" d="M129.93,163H18.07c-1.14,0-2.07-.94-2.07-2.09v-51.82c0-1.15,.93-2.09,2.07-2.09h111.86c1.14,0,2.07,.94,2.07,2.09v51.82c0,1.15-.93,2.09-2.07,2.09ZM18.25,108c-.69,0-1.25,.56-1.25,1.25v51.51c0,.69,.56,1.25,1.25,1.25h112.5c.69,0,1.25-.56,1.25-1.25v-51.51c0-.69-.56-1.25-1.25-1.25H18.25Z"/><path class="cls-4" d="M128.92,96h-49.85c-1.15,0-2.08-.93-2.08-2.08v-27.84c0-1.15,.93-2.08,2.08-2.08h49.85c1.15,0,2.08,.93,2.08,2.08v27.84c0,1.15-.93,2.08-2.08,2.08Zm-49.68-31c-.68,0-1.24,.55-1.24,1.23v27.53c0,.68,.55,1.23,1.24,1.23h49.52c.68,0,1.24-.55,1.24-1.23v-27.53c0-.68-.55-1.23-1.24-1.23h-49.52Z"/><path class="cls-4" d="M67.92,231H18.08c-1.15,0-2.08-.93-2.08-2.07v-51.85c0-1.15,.93-2.07,2.08-2.07h49.85c1.15,0,2.08,.93,2.08,2.07v51.85c0,1.15-.93,2.07-2.08,2.07Zm-49.68-55c-.68,0-1.24,.55-1.24,1.24v51.53c0,.68,.55,1.24,1.24,1.24h49.52c.68,0,1.24-.55,1.24-1.24v-51.53c0-.68-.55-1.24-1.24-1.24H18.24Z"/><path class="cls-4" d="M128.92,231h-49.85c-1.15,0-2.08-.93-2.08-2.07v-51.85c0-1.15,.93-2.07,2.08-2.07h49.85c1.15,0,2.08,.93,2.08,2.07v51.85c0,1.15-.93,2.07-2.08,2.07Zm-49.68-55c-.68,0-1.24,.55-1.24,1.24v51.53c0,.68,.55,1.24,1.24,1.24h49.52c.68,0,1.24-.55,1.24-1.24v-51.53c0-.68-.55-1.24-1.24-1.24h-49.52Z"/><circle class="cls-4" cx="34.59" cy="125.89" r="8.46"/><path class="cls-4" d="M54.12,120c-.78,0-1.41,.67-1.41,1.5s.63,1.5,1.41,1.5H120.57c.78,0,1.41-.67,1.41-1.5,0-.83-.63-1.5-1.41-1.5H54.12Z"/><path class="cls-4" d="M53.2,129c-.83,0-1.5,.67-1.5,1.5s.67,1.5,1.5,1.5h30.43c.83,0,1.5-.67,1.5-1.5s-.67-1.5-1.5-1.5h-30.43Z"/><path class="cls-4" d="M28.1,142c-1.07,0-1.94,.67-1.94,1.5s.87,1.5,1.94,1.5H119.78c1.07,0,1.94-.67,1.94-1.5s-.87-1.5-1.94-1.5H28.1Z"/><path class="cls-4" d="M28.1,151c-1.07,0-1.94,.67-1.94,1.5s.87,1.5,1.94,1.5H119.78c1.07,0,1.94-.67,1.94-1.5s-.87-1.5-1.94-1.5H28.1Z"/><circle class="cls-4" cx="35.42" cy="36.21" r="8.46"/><path class="cls-4" d="M54.95,30c-.78,0-1.41,.67-1.41,1.5,0,.83,.63,1.5,1.41,1.5H121.4c.78,0,1.41-.67,1.41-1.5,0-.83-.63-1.5-1.41-1.5H54.95Z"/><path class="cls-4" d="M54.03,39c-.83,0-1.5,.67-1.5,1.5,0,.83,.67,1.5,1.5,1.5h30.43c.83,0,1.5-.67,1.5-1.5s-.67-1.5-1.5-1.5h-30.43Z"/><path class="cls-4" d="M67.78,96H21.04l10.95-18.97c.38-.66,1.04-1.15,1.8-1.2,.92-.06,1.72,.4,2.14,1.12l4.7,8.14,7.93-13.73c.48-.83,1.31-1.44,2.26-1.51,1.15-.08,2.15,.5,2.67,1.4l14.29,24.75Zm-45.3,0h43.87l-13.53-23.43c-.34-.58-.92-1.02-1.59-1.06-.81-.06-1.52,.35-1.89,.99l-8.71,15.08-5.42-9.38c-.39-.68-1.26-.91-1.93-.52-.22,.12-.39,.3-.52,.52l-10.28,17.81Z"/><path class="cls-4" d="M127.57,96h-46.74l10.95-18.97c.38-.66,1.04-1.15,1.8-1.2,.92-.06,1.72,.4,2.14,1.12l4.7,8.14,7.93-13.73c.48-.83,1.31-1.44,2.26-1.51,1.15-.08,2.15,.5,2.68,1.4l14.29,24.75Zm-45.3,0h43.87l-13.53-23.43c-.34-.58-.92-1.02-1.59-1.06-.81-.06-1.52,.35-1.89,.99l-8.71,15.08-5.42-9.38c-.39-.68-1.26-.91-1.93-.52-.22,.12-.39,.3-.52,.52l-10.28,17.81Z"/><path class="cls-4" d="M67.92,96H18.08c-1.15,0-2.08-.93-2.08-2.08v-27.84c0-1.15,.93-2.08,2.08-2.08h49.85c1.15,0,2.08,.93,2.08,2.08v27.84c0,1.15-.93,2.08-2.08,2.08Zm-49.68-31c-.68,0-1.24,.55-1.24,1.23v27.53c0,.68,.55,1.23,1.24,1.23h49.52c.68,0,1.24-.55,1.24-1.23v-27.53c0-.68-.55-1.23-1.24-1.23H18.24Z"/><path class="cls-4" d="M27.7,185c-.83,0-1.5,.67-1.5,1.5,0,.83,.67,1.5,1.5,1.5h30.43c.83,0,1.5-.67,1.5-1.5,0-.83-.67-1.5-1.5-1.5H27.7Z"/><path class="cls-4" d="M27.7,193c-.83,0-1.5,.67-1.5,1.5,0,.83,.67,1.5,1.5,1.5h30.43c.83,0,1.5-.67,1.5-1.5,0-.83-.67-1.5-1.5-1.5H27.7Z"/><path class="cls-4" d="M42.91,219.85c-4.9,0-8.87-3.97-8.87-8.87s3.97-8.87,8.87-8.87,8.87,3.97,8.87,8.87h0c0,4.9-3.97,8.87-8.87,8.87Zm0-16.91c-4.44,0-8.04,3.6-8.04,8.04,0,4.44,3.6,8.04,8.04,8.04s8.04-3.6,8.04-8.04h0c0-4.44-3.6-8.04-8.04-8.04h0Z"/><path class="cls-4" d="M119.58,220c.83,0,1.5-.67,1.5-1.5,0-.83-.67-1.5-1.5-1.5h-30.43c-.83,0-1.5,.67-1.5,1.5,0,.83,.67,1.5,1.5,1.5h30.43Z"/><path class="cls-4" d="M119.58,212c.83,0,1.5-.67,1.5-1.5,0-.83-.67-1.5-1.5-1.5h-30.43c-.83,0-1.5,.67-1.5,1.5s.67,1.5,1.5,1.5h30.43Z"/><path class="cls-4" d="M104.36,185.21c4.9,0,8.87,3.97,8.87,8.87s-3.97,8.87-8.87,8.87-8.87-3.97-8.87-8.87h0c0-4.9,3.97-8.87,8.87-8.87Zm0,16.91c4.44,0,8.04-3.6,8.04-8.04s-3.6-8.04-8.04-8.04-8.04,3.6-8.04,8.04h0c0,4.44,3.6,8.04,8.04,8.04h0Z"/><circle class="cls-2" cx="90.77" cy="51.52" r="21"/><circle class="cls-2" cx="90.77" cy="51.52" r="14"/><circle class="cls-1" cx="90.77" cy="51.52" r="9.72"/><circle class="cls-2" cx="42.94" cy="193.47" r="15.53"/><circle class="cls-2" cx="42.94" cy="193.47" r="10.35"/><circle class="cls-1" cx="42.94" cy="193.47" r="7.19"/><circle class="cls-2" cx="107.5" cy="132.8" r="17.86"/><circle class="cls-2" cx="107.5" cy="132.8" r="11.91"/><circle class="cls-1" cx="107.5" cy="132.8" r="8.27"/><path class="cls-3" d="M190.51,160.53l-3.67,6.21c-1.3,2.2-4.15,2.93-6.35,1.63-.36-.21-.68-.47-.97-.77h0c-1.78-1.84-1.73-4.77,.11-6.55,.16-.15,.33-.29,.5-.42l5.98-4.32c5.74-7.77,9.03-20.97,11.84-35.25l11.68,1.37c-3.01,11.69-10.21,24.64-19.12,38.12Z"/><path class="cls-4" d="M192.01,125.22l18.99,5.38v-33.15l-2.52,.82c-4.47,1.45-7.96,4.95-9.4,9.42l-7.07,17.53Z"/><path class="cls-5" d="M230.79,244.25l-7.09-.28c-2.33-23.96-5.3-45.71-11.34-56.99-5.85,6.27-7.18,26.06-8.16,53.02h-6.87c-7.22-31.06-9.04-53.09,0-74h36.86l-3.4,78.25Z"/><path class="cls-5" d="M204.64,244.5l-12.3,6.28c-1.33,.68-2.96,.15-3.64-1.18-.03-.05-.05-.1-.07-.15h0c-.54-1.24-.08-2.7,1.09-3.4l1.68-1.01,4.67-6.98,7.96-.63,1.46,1.4c1.4,1.34,1.45,3.57,.11,4.97-.27,.28-.59,.52-.94,.7Z"/><path class="cls-5" d="M229.62,250.39l-13.8,.39c-1.49,.04-2.74-1.14-2.78-2.63,0-.06,0-.11,0-.17h0c.05-1.36,1.09-2.47,2.44-2.6l1.95-.19,7.22-4.3,7.46,2.85,.71,1.89c.69,1.82-.23,3.85-2.04,4.54-.37,.14-.76,.22-1.15,.23Z"/><circle class="cls-3" cx="215.59" cy="82.05" r="9.26"/><path class="cls-3" d="M230.78,96.88l-19.27,7.37c1.12-6.05,1.14-11.75-.71-16.86l12.33-2.13c-1.03,5.31,2.17,8.92,7.65,11.62Z"/><path class="cls-4" d="M238.72,171.12c-16.96,3.22-30.62,1.15-41.66-5.1,5.11-17.59,5.83-37.06,4.5-57.4-.27-4.17,2.12-8.05,5.97-9.69l4.84-2.06c2.61,5.92,8.62,2.51,15.02-1.98l7.91,3.5c2.57,1.14,4.17,3.75,4.01,6.56-1.58,27.03-3.71,56-.58,66.18Z"/><path class="cls-3" d="M244.38,167.16l-.5,7.23c-.19,2.74-2.56,4.82-5.3,4.64h0c-2.75-.18-4.85-2.55-4.67-5.31,.05-.83,.31-1.63,.75-2.33l4.06-6.5c2.4-9.35,.5-22.83-2.27-37.12l11.34-3.12c1.6,11.96-.2,26.67-3.4,42.51Z"/><path class="cls-5" d="M226.2,76.03s1.73-3.81-2.77-5.54c0,0-3.81-6.23-11.43-2.08,0,0-5.2,2.08-5.2,7.62s-1.73,6.58-1.73,6.58c0,0,2.58-2.65,3.27-4.72s6.08-2.55,8.16-.47c2.08,2.08,7.27,1.73,7.27,1.73l-.35,7.62s1.73-4.5,2.42-4.5,1.39-6.23,.35-6.23Z"/><path class="cls-4" d="M251.99,124.93l-18.99,5.38v-33.15l2.52,.82c4.47,1.45,7.96,4.95,9.4,9.42l7.07,17.53Z"/><rect class="cls-4" x="87" y="251" width="236" height="1"/><path class="cls-4" d="M265.01,188.12c5.15,7.28,6.51,48.74,6.82,62.03,0,.3,.02,.58,.02,.85h13.05c8.34-15.42,3.89-34.39,3.66-35.34,.59,2.91-2.07,11.34-5.07,19.51-1.83-25.11-17.49-45.79-18.47-47.05Z"/></g></g></svg>