<?xml version="1.0" encoding="UTF-8"?><svg id="Layer_2" xmlns="http://www.w3.org/2000/svg" xmlns:xlink="http://www.w3.org/1999/xlink" viewBox="0 0 842.8 493.75"><defs><style>.cls-1{fill:url(#linear-gradient);}</style><linearGradient id="linear-gradient" x1="0" y1="246.87" x2="842.8" y2="246.87" gradientTransform="matrix(1, 0, 0, 1, 0, 0)" gradientUnits="userSpaceOnUse"><stop offset="0" stop-color="#272361"/><stop offset="1" stop-color="#0c72ba"/></linearGradient></defs><g id="Layer_1-2"><path class="cls-1" d="M795.19,490.58l-111.46-29.46c-.28-.03-.56-.06-.85-.07-29.16-1.82-69.63,33.33-95.49,23.39-63.94-24.59-24.59-9.84-63.94-14.75-30.18-3.77-62.64,9.86-72.54,19.67-17.39,17.23-94.95-21.37-113.12-27.05-39.35-12.3-95.18,19.45-103.28,22.13-34.16,11.32-81.68-9.1-95.91-20.9-15.18-12.6-52.43,11.34-62.71,17.21C27.86,508.21,0,446.69,0,413.48V100.41C0,57.72,.35-18.16,68.9,4.9c7.85,2.64,41.17,49.32,72.82,39.01,9.84-3.21,47.07-28.71,66.54-40.11,31.39-18.39,39.47,35.7,93.98,39.31,13.46,.89,27.07-28.88,53.58-35.71,20.19-5.2,69.95,45.81,75.36,46.95,25.67,5.41,23.68-20.46,54.45-37.01,4.6-2.48,21.21-5.69,32.15,7.36,15.77,18.8,60.49,39.35,70.97,35.72,1.41-.49,17.6-.05,39.52-26.75,14.41-17.55,41.82-33.72,62.27-25.04,4.41,1.87,19.67,10.11,33.61,16.98,10.26,5.06,49.95,21.75,54.69,18.43,15.07-10.54,31.18-19.28,48.96-22.38l15-2.61V402.66c0,40.93-6.96,92.62-47.62,87.92Z"/></g></svg>