<?xml version="1.0" encoding="UTF-8"?><svg id="Layer_2" xmlns="http://www.w3.org/2000/svg" viewBox="0 0 777 498"><defs><style>.cls-1{fill:#f9ae3b;}.cls-2{fill:blue;}.cls-3{fill:#f0f0f0;}.cls-4{fill:#f725ff;}.cls-5,.cls-6{fill:#fff;}.cls-7{fill:#ff0;}.cls-8{fill:#ffb7b7;}.cls-9{fill:#3f3d56;}.cls-10{fill:#2f2e41;}.cls-6{opacity:.3;}.cls-6,.cls-11{isolation:isolate;}.cls-11{opacity:.1;}</style></defs><g id="Layer_1-2"><g><ellipse class="cls-3" cx="388.5" cy="473.11" rx="388.5" ry="24.89"/><rect class="cls-3" x="124.06" width="583.47" height="20.17"/><ellipse class="cls-5" cx="139.35" cy="9.86" rx="4.81" ry="5.35"/><ellipse class="cls-5" cx="154.97" cy="9.86" rx="4.81" ry="5.35"/><ellipse class="cls-5" cx="170.59" cy="9.86" rx="4.81" ry="5.35"/><polygon class="cls-4" points="124.47 327.39 124.06 327.79 124.06 467.33 707.53 467.33 707.53 222.22 700.58 222.81 124.47 327.39"/><rect class="cls-7" x="166.31" y="137.84" width="162.97" height="7.84"/><rect class="cls-5" x="166.31" y="153.53" width="162.97" height="7.84"/><rect class="cls-7" x="165.31" y="170.34" width="55.33" height="7.84"/><rect class="cls-5" x="498.29" y="340.69" width="162.97" height="7.84"/><rect class="cls-5" x="498.29" y="357.5" width="162.97" height="7.84"/><rect class="cls-5" x="498.29" y="373.19" width="55.33" height="7.84"/><ellipse class="cls-3" cx="396.96" cy="453.02" rx="6.41" ry="7.14"/><ellipse class="cls-3" cx="415.55" cy="453.73" rx="6.41" ry="7.14"/><ellipse class="cls-3" cx="434.14" cy="454.44" rx="6.41" ry="7.14"/><ellipse class="cls-9" cx="415.61" cy="453.73" rx="5.13" ry="5.71"/><rect class="cls-9" x="219.63" y="221.9" width="55.33" height="14.57"/><rect class="cls-5" x="547.58" y="411.29" width="55.33" height="14.57"/><ellipse class="cls-6" cx="247.51" cy="229.08" rx="38.19" ry="42.54"/><ellipse class="cls-6" cx="247.51" cy="229.08" rx="25.46" ry="28.36"/><ellipse class="cls-5" cx="247.51" cy="229.08" rx="17.68" ry="19.7"/><ellipse class="cls-6" cx="568.83" cy="123.65" rx="38.19" ry="42.54"/><ellipse class="cls-6" cx="568.83" cy="123.65" rx="25.46" ry="28.36"/><ellipse class="cls-5" cx="568.83" cy="123.65" rx="17.68" ry="19.7"/><ellipse class="cls-6" cx="575.63" cy="418.94" rx="38.19" ry="42.54"/><ellipse class="cls-6" cx="575.63" cy="418.94" rx="25.46" ry="28.36"/><ellipse class="cls-5" cx="575.63" cy="418.94" rx="17.68" ry="19.7"/><polygon class="cls-5" points="79.31 86.65 63.59 85.97 64.37 63.46 80.09 64.14 79.31 86.65"/><path class="cls-8" d="M135.27,142.3s21.77-11.59,21.42-1.58c-.35,10.01-21.94,16.59-21.94,16.59l.52-15.01Z"/><path class="cls-2" d="M123.33,226.96s10.27,28,14.06,48.2c3.79,20.2,9.57,48.01,2.14,67.73-7.43,19.72-28.56,77.68-28.78,83.93s1.81,12.6-2.68,12.41-28.93-8.76-29.92-12.57c-.99-3.8,8.34-13.42,8.34-13.42l23.04-80.42-24.04-52.39-17.34,78.16-3.4,97.55s-16.67-5.73-19.09-.82c0,0-7.47-11.6-8.42-16.65s3.53-101.3,3.53-101.3c0,0-15.3-109.63-2.95-109.1,12.35,.53,60.72-32.45,85.5-1.32Z"/><path class="cls-10" d="M108.25,434.23s11.39,28.05,12.47,29.35,8.5,14.15,2.89,13.9-18.87-7.08-28.62-17.52c-9.76-10.44-22.62-28.53-21.45-29.74s9.16-4.61,9.16-4.61l25.56,8.62Z"/><path class="cls-10" d="M62.73,449.8s.69,12.56,2.76,17.65c2.07,5.1,1.81,12.6-3.8,12.36-5.61-.24-20.12-3.37-20.12-3.37,0,0-.86-7.55,.3-8.75s6.14-14.77,4.02-18.61c-2.11-3.85,16.84,.73,16.84,.73Z"/><path class="cls-8" d="M54.43,42.36s-11.97,20.78-16.63,25.59,8.46,15.4,8.46,15.4l23.49,3.52s-.3-23.81,.91-26.26c1.21-2.45-16.23-18.24-16.23-18.24Z"/><path class="cls-5" d="M74.84,69.55s-4.84,9.81-9.33,9.62-27.72-11.22-28.71-15.02-7.69,27.22-7.69,27.22l56.84,111.43,13.86-10.67-6.72-65.42-5.52-35.31-12.73-21.84Z"/><path class="cls-1" d="M34.71,169.27c2.27,5.28,3.68,10.79,3.49,16.43,0,.25-.02,.5-.04,.75-.54,11.58-4.37,24.96-5.74,34.7-1,6.98-.71,12.08,2.96,13.28,8.89,2.89-1.3,4.95,33.11,17.71,34.41,12.76,40.42,1.75,40.5-.76,.09-2.5-4.87-21.5-3.71-22.71,1.17-1.2,16.32,15.74,20.9,13.43s.52-15.01,.52-15.01c0,0-10.31-26.75-10.09-33,.22-6.25-15.62-35.75-15.62-35.75l-10.77-78.12s-4.14-10.2-9.71-11.69c-5.57-1.49-10.19,2.06-10.19,2.06l9.32,22.95,9.83,40.51-1.65,14.96s-11.44-26.8-18.95-37.14c-7.51-10.34-23.52-34.83-23.52-34.83,0,0-3.74-14.05-.92-18.25,2.82-4.21-11.77-4.84-17.99,12.42-3.3,9.15-8.65,22.8-12.01,35.5-2.99,11.26-4.4,21.78-1.44,27.79,4.53,9.19,15.91,21.27,21.72,34.76Z"/><path class="cls-11" d="M12.99,134.52c4.53,9.19,15.91,21.27,21.72,34.76,1.52-6.08,3.37-12.38,3.37-12.38,0,0,7.09-42.28-13.89-53.21-3.48-.37-6.95,.71-9.75,3.04-2.99,11.26-4.4,21.78-1.44,27.79Z"/><path class="cls-1" d="M96.29,131.85l17.79,5.78,24.7,1.07,2.54,23.91-40.59,3.26s-10.14-31.75-4.44-34.01Z"/><path class="cls-8" d="M67.28,212.24s23.8,4.4,18.37,12.38c-5.43,7.98-26.51-.41-26.51-.41l8.15-11.97Z"/><path class="cls-11" d="M38.16,186.46c-.54,11.58-4.37,24.96-5.74,34.7,7.58,7.99,14.79,15.04,17.51,15.16,5.61,.24,14.64-.62,17.96,.78,3.32,1.4,5.27-22.32,5.27-22.32,0,0-1.98-7.6-10.83-11.74-5.97-2.8-17.43-10.4-24.17-16.58Z"/><path class="cls-1" d="M24.44,96.18s-19-3.33-17.97,31.79-2,57.53,5.64,64.12c7.64,6.59,32.46,36.47,38.07,36.72,5.61,.24,14.64-.62,17.96,.78,3.32,1.4,5.27-22.32,5.27-22.32,0,0-1.98-7.6-10.83-11.74-8.85-4.14-29.7-18.82-29.53-23.82s5.27-22.32,5.27-22.32c0,0,7.09-42.28-13.89-53.21Z"/><ellipse class="cls-8" cx="71.18" cy="45.59" rx="24.72" ry="27.54"/><path class="cls-10" d="M87.82,6.13c.6,.57,1.31,.97,2.08,1.16,.8,.16,1.57-.43,1.72-1.33,.57,1.31,1.2,2.7,2.36,3.37s2.94,.11,3.11-1.33c.17,1.09,.6,2.11,1.25,2.95,.72,.76,2.02,.95,2.64,.1-.51,3.08-.19,6.24-.35,9.37-.16,3.12-.91,6.44-3.03,8.49-3.09,3-7.74,2.26-11.8,1.69-.61-.14-1.25-.1-1.85,.11-1.52,.72-1.45,3.08-1.47,4.93-.26,6.68-4.8,12.17-10.76,13-1.61,.28-3.26-.17-4.58-1.24-1.15-1.09-1.74-2.87-3.07-3.68-2.15-1.33-4.76,.61-6.33,2.72-1.57,2.11-3.12,4.7-5.56,5.09-3.22,.51-5.68-3.15-6.88-6.52-3.36-9.54-3.11-20.18,.68-29.52C52.71-.86,75.69-3.45,87.82,6.13Z"/><path class="cls-3" d="M681.16,443.96c8.71,16.54,26.26,23.09,26.26,23.09,0,0,3.44-20.27-5.26-36.8-8.71-16.54-26.26-23.09-26.26-23.09,0,0-3.44,20.27,5.26,36.8Z"/><path class="cls-5" d="M686.59,438.18c15.05,9.29,21.36,28.68,21.36,28.68,0,0-18.1,4.33-33.16-4.96-15.05-9.29-21.36-28.68-21.36-28.68,0,0,18.1-4.33,33.16,4.96Z"/></g></g></svg>