<?xml version="1.0" encoding="UTF-8"?>
<svg id="Layer_2" xmlns="http://www.w3.org/2000/svg" viewBox="0 0 849.78 385.8">
    <defs>
    <style>.cls-1{fill:#010101;}</style>
    </defs>
<g id="Layer_1-2">
<path class="cls-1" d="M2.89,372.91l-2.89-1.53V0H848.26l1.51,290.41c0,102.5-148.78-11.77-197.59,27.37-20.03,16.06-59.43,53.22-102.58,45.61-25.33-4.46-118.35-51.61-143.77-34.95-32.71,21.44-78.58,62.05-116.17,42.92-13.38-6.81-60.97-72.25-104.31-53.66-.48,.2-30.32,20.78-54.52,37.41-14.26,9.8-35.6,24.15-50.41,27.66-.16,.04-.32,.08-.49,.11-26.03,6.11-53.39,2.49-77.05-9.99Z"/>
</g>
</svg>