<?xml version="1.0" encoding="UTF-8"?><svg id="Layer_2" xmlns="http://www.w3.org/2000/svg" viewBox="0 0 402.37 263.44"><defs><style>.cls-1{fill:#fb6582;}.cls-2{fill:#f0f0f0;}.cls-3{fill:#fff;}.cls-4{fill:#ffb4b4;}.cls-5{fill:#e4e4e4;}.cls-6{fill:#9e616a;}.cls-7{fill:#3f3d56;}.cls-8{fill:#2f2e41;}.cls-9{isolation:isolate;opacity:.2;}</style></defs><g id="Layer_1-2"><g><circle class="cls-1" cx="199.12" cy="32.58" r="12.21"/><path class="cls-5" d="M226.43,26.8c-.7-2.31-2.71-3.98-5.11-4.25-.03,0-.05,0-.08,0-.03-.01-.07-.02-.1-.02-4.09-.53-8.63,.76-11.69,3.57-1.14,1.03-2.04,2.28-2.67,3.68-1.15-1.57-3-2.48-4.95-2.41-2.53,.17-4.69,1.91-5.39,4.35-.08,.3,.05,.61,.32,.77,.37,.31,.8,.54,1.28,.65,1.01,.21,2.03,.41,3.05,.59,1.99,.35,4,.63,6.01,.85,1.33,.14,2.66,.25,4,.34,2.76,.17,5.54,.21,8.3,.13,1.37-.05,2.69-.09,3.94-.69,.91-.45,1.69-1.13,2.26-1.97,1.09-1.64,1.39-3.68,.83-5.56Z"/><path class="cls-5" d="M201.32,44.58c-.02-.51-.11-1.02-.26-1.51-.71-2.31-2.71-3.97-5.11-4.25-.03,0-.05,0-.08,0-.03,0-.07-.02-.11-.02-2.26-.28-4.56-.04-6.72,.69-3.32,1.11-6.23,3.35-7.63,6.55-1.15-1.57-3.01-2.48-4.96-2.41-2.53,.17-4.69,1.91-5.39,4.35-.07,.3,.05,.61,.32,.77,.37,.31,.81,.54,1.28,.65,1.01,.21,2.03,.41,3.05,.59,1.99,.35,4,.63,6.01,.85,4.09,.44,8.2,.59,12.31,.47,1.37-.05,2.69-.09,3.94-.69,.91-.45,1.69-1.13,2.26-1.97,.8-1.19,1.19-2.62,1.09-4.05Z"/><path class="cls-2" d="M360.3,192.27c.18,8.62-1.06,17.21-3.67,25.43l-.02,.02h-50.08c.72-3.53,1.85-6.95,3.39-10.21,4.17-8.85,10.97-16.42,17.69-23.94,9.25-10.36,18.29-20.64,19.72-34.11,3.67,5.59,6.6,11.64,8.71,17.98-2.59,.96-4.96,2.42-6.99,4.29-.56,.53-1.16,1.29-.87,2.02,.27,.61,1.02,.82,1.68,.95,1.6,.31,3.2,.61,4.8,.9,1.26,.26,2.53,.49,3.81,.73,1.12,5.24,1.74,10.57,1.84,15.92Z"/><path class="cls-2" d="M402.37,186.76c-8.03,4.88-13.13,12.44-17.3,20.89-3.63,.83-6.98,2.59-9.71,5.1-.58,.53-1.17,1.29-.87,2.02,.26,.61,1.02,.82,1.68,.95,1.58,.31,3.2,.61,4.78,.9-.15,.36-.31,.73-.46,1.09h-53.08c2.41-3.25,5.08-6.3,7.98-9.12,.63-.63,1.28-1.22,1.94-1.84,6.77-6.11,14.54-11.02,22.97-14.49,13.28-5.55,27.81-7.46,42.07-5.51Z"/><path class="cls-2" d="M336.26,217.72h-47.26c-.26-3.78-.24-7.58,.07-11.36,1.89-23.36,14.6-45.61,33.77-59.08-2.45,8.73-1.19,17.4,1.36,26.11-.36,.12-.71,.22-1.04,.36-2.59,.96-4.96,2.42-6.99,4.29-.56,.53-1.16,1.29-.87,2.02,.26,.61,1.02,.82,1.68,.95,1.6,.31,3.2,.61,4.78,.9,1.28,.26,2.55,.49,3.83,.75,.6,.1,1.19,.22,1.79,.34,.09,.2,.14,.39,.22,.58,2.99,8.25,6.26,16.57,7.79,25.02,.38,2.12,.64,4.26,.78,6.41,.05,.9,.09,1.8,.09,2.7Z"/><path class="cls-2" d="M78.69,192.27c.18,8.62-1.06,17.21-3.67,25.43l-.02,.02H24.92c.72-3.53,1.85-6.95,3.39-10.21,4.17-8.85,10.97-16.42,17.69-23.94,9.25-10.36,18.29-20.64,19.72-34.11,3.67,5.59,6.6,11.64,8.71,17.98-2.59,.96-4.96,2.42-6.99,4.29-.56,.53-1.16,1.29-.87,2.02,.27,.61,1.02,.82,1.68,.95,1.6,.31,3.2,.61,4.8,.9,1.26,.26,2.53,.49,3.81,.73,1.12,5.24,1.74,10.57,1.84,15.92Z"/><path class="cls-2" d="M120.76,186.76c-8.03,4.88-13.13,12.44-17.3,20.89-3.63,.83-6.98,2.59-9.71,5.1-.58,.53-1.17,1.29-.87,2.02,.26,.61,1.02,.82,1.68,.95,1.58,.31,3.2,.61,4.78,.9-.15,.36-.31,.73-.46,1.09H45.81c2.41-3.25,5.08-6.3,7.98-9.12,.63-.63,1.28-1.22,1.94-1.84,6.77-6.11,14.54-11.02,22.97-14.49,13.28-5.55,27.81-7.46,42.07-5.51Z"/><path class="cls-2" d="M54.65,217.72H7.39c-.26-3.78-.24-7.58,.07-11.36,1.89-23.36,14.6-45.61,33.77-59.08-2.45,8.73-1.19,17.4,1.36,26.11-.36,.12-.71,.22-1.04,.36-2.59,.96-4.96,2.42-6.99,4.29-.56,.53-1.16,1.29-.87,2.02,.26,.61,1.02,.82,1.68,.95,1.6,.31,3.2,.61,4.78,.9,1.28,.26,2.55,.49,3.83,.75,.6,.1,1.19,.22,1.79,.34,.09,.2,.14,.39,.22,.58,2.99,8.25,6.26,16.57,7.79,25.02,.38,2.12,.64,4.26,.78,6.41,.05,.9,.09,1.8,.09,2.7Z"/><path class="cls-5" d="M230.37,198.3l42.23,3.75,.45,.04V21.91l-.45-.32c-8.8-6.16-18.32-11.21-28.35-15.06l-2.16,29.76-.2,2.72-2.13,29.51-.66,9.08-8.65,119.64-.08,1.05Z"/><path class="cls-5" d="M125.05,19.14h0V202.09l.91-.08,41.77-3.71-.08-1.05-8.65-119.64-.66-9.08-2.13-29.51-.2-2.72-2.26-31.21c-10.1,3.5-19.73,8.22-28.69,14.05Z"/><path class="cls-5" d="M125.26,19.14c-.61,.39-1.22,.8-2.21,1.2V204.59c.39,4.6,3.12,8.46,6.77,9.44,.6,.16,1.83-.31,1.83-.31h135.68s1.23,.47,1.82,.31c1.36-.38,2.59-1.11,3.56-2.13,1.85-1.98,2.87-4.6,3.34-7.31V23.55c-1.26-.55-2.02-1.1-2.78-1.64-.15-.11-.3-.21-.22-.32V204.59c-.23,.59-.3,1.18-.44,1.76-.64,2.72-5.28,4.37-5.28,4.37H131.65s-5.49-2.56-5.6-6.13V18.56c-.19,.19-.49,.38-.79,.59Z"/><rect class="cls-5" x="125.05" y="35.72" width="149" height="3"/><path class="cls-5" d="M229.05,1.55c-1.53-.22-2.43-.43-3-.63V74.72h3V1.55Z"/><path class="cls-5" d="M173.05,0c-.68,.17-1.59,.34-3,.53V74.72h3V0Z"/><path class="cls-5" d="M95.52,209.22c0,1.59,.3,3.17,.88,4.65,.22,.57,.49,1.13,.8,1.66,.4,.69,.86,1.35,1.38,1.95,2.32,2.7,5.68,4.25,9.2,4.25h178.53c5.76,0,10.96-3.84,12.26-9.44,1.91-8.23-4.16-15.56-11.91-15.56H107.78c-6.77,0-12.25,5.6-12.26,12.5Z"/><rect class="cls-5" x="125.05" y="68.72" width="148" height="9"/><path class="cls-5" d="M205.4,70.72h-12.73c0-2.76,2.24-5,5-5h2.73c2.76,0,4.99,2.24,4.99,4.99h0Z"/><path class="cls-7" d="M0,216.72c3.97,4.62,8.27,8.97,12.86,13H381.59c4.59-4.03,8.88-8.38,12.86-13H0Z"/><path class="cls-8" d="M181.05,172.29v46.43h33v-46.43c0-.69-.45-1.29-1.12-1.49-.15-.05-.31-.07-.47-.07h-29.82c-.88,0-1.59,.7-1.59,1.56h0Zm13,16.08c.02-1.93,1.6-3.49,3.53-3.47,1.91,.02,3.45,1.56,3.47,3.47v5.43c0,1.93-1.58,3.49-3.52,3.48-1.92,0-3.47-1.56-3.48-3.48v-5.43Z"/><path class="cls-7" d="M181.05,217.72v4.18c0,.45,.39,.82,.88,.82h31.24c.49,0,.88-.37,.88-.82v-4.18h-33Z"/><path class="cls-7" d="M130.05,101.84v85.76c0,2.28,1.84,4.12,4.11,4.12h126.78c2.27,0,4.11-1.85,4.11-4.12V101.84c0-2.27-1.84-4.11-4.11-4.12h-126.78c-2.27,0-4.11,1.84-4.11,4.12Z"/><path class="cls-3" d="M133.05,102.93v83.59c0,1.22,.98,2.2,2.2,2.2h124.61c1.21,0,2.19-.99,2.2-2.2V102.93c0-1.22-.98-2.2-2.2-2.21h-124.61c-1.21,0-2.2,.99-2.2,2.21Z"/><path class="cls-8" d="M159.02,224.23c.25,.31,.63,.5,1.03,.49h72.39c.74,0,1.33-.6,1.33-1.33,0-.09,0-.18-.03-.27l-1.12-5.34c-.09-.44-.41-.81-.83-.97-.15-.06-.31-.09-.47-.09h-70.15c-.16,0-.32,.03-.47,.09-.42,.16-.73,.53-.83,.97l-1.12,5.34c-.08,.39,.02,.8,.27,1.11Z"/><path class="cls-7" d="M231.46,218.72h-1.84c-.12,.06-.22-.04-.57-.17v-.93c.35-.12,.45-.22,.57,.09h1.84c.12-.32,.22-.22-.41-.09v.93c.63,.12,.53,.22,.41,.17Z"/><path class="cls-7" d="M226.89,218.72h-1.84c-.12,.06-.22-.04,0-.17v-.93c-.22-.12-.12-.22,0,.09h1.84c.12-.32,.22-.22,.16-.09v.93c.06,.12-.04,.22-.16,.17Z"/><path class="cls-7" d="M222.32,218.72h-1.84c-.12,.06-.22-.04-.43-.17v-.93c.2-.12,.3-.22,.43,.09h1.84c.12-.32,.22-.22-.27-.09v.93c.49,.12,.39,.22,.27,.17Z"/><path class="cls-7" d="M217.75,218.72h-1.84c-.12,.06-.22-.04,.14-.17v-.93c-.37-.12-.27-.22-.14,.09h1.84c.12-.32,.22-.22,.31-.09v.93c-.08,.12-.18,.22-.31,.17Z"/><path class="cls-7" d="M213.17,218.72h-1.84c-.12,.06-.22-.04-.28-.17v-.93c.06-.12,.16-.22,.28,.09h1.84c.12-.32,.22-.22-.12-.09v.93c.35,.12,.25,.22,.12,.17Z"/><path class="cls-7" d="M208.6,218.72h-1.84c-.12,.06-.22-.04,.29-.17v-.93c-.51-.12-.41-.22-.29,.09h1.84c.12-.32,.22-.22,.45-.09v.93c-.23,.12-.33,.22-.45,.17Z"/><path class="cls-7" d="M204.03,218.72h-1.84c-.12,.06-.22-.04-.14-.17v-.93c-.08-.12,.02-.22,.14,.09h1.84c.12-.32,.22-.22,.02-.09v.93c.2,.12,.1,.22-.02,.17Z"/><path class="cls-7" d="M199.46,218.72h-1.84c-.12,.06-.22-.04-.57-.17v-.93c.35-.12,.45-.22,.57,.09h1.84c.12-.32,.22-.22-.41-.09v.93c.63,.12,.53,.22,.41,.17Z"/><path class="cls-7" d="M194.89,218.72h-1.84c-.12,.06-.22-.04,0-.17v-.93c-.23-.12-.13-.22,0,.09h1.84c.12-.32,.22-.22,.16-.09v.93c.06,.12-.04,.22-.16,.17Z"/><path class="cls-7" d="M190.32,218.72h-1.84c-.12,.06-.22-.04-.43-.17v-.93c.2-.12,.3-.22,.43,.09h1.84c.12-.32,.22-.22-.27-.09v.93c.49,.12,.39,.22,.27,.17Z"/><path class="cls-7" d="M185.75,218.72h-1.84c-.12,.06-.22-.04,.15-.17v-.93c-.37-.12-.27-.22-.15,.09h1.84c.12-.32,.22-.22,.31-.09v.93c-.08,.12-.18,.22-.31,.17Z"/><path class="cls-7" d="M181.17,218.72h-1.84c-.12,.06-.22-.04-.28-.17v-.93c.06-.12,.16-.22,.28,.09h1.84c.12-.32,.22-.22-.12-.09v.93c.35,.12,.25,.22,.12,.17Z"/><path class="cls-7" d="M176.6,218.72h-1.84c-.12,.06-.22-.04,.29-.17v-.93c-.51-.12-.41-.22-.29,.09h1.84c.12-.32,.22-.22,.45-.09v.93c-.23,.12-.33,.22-.45,.17Z"/><path class="cls-7" d="M172.03,218.72h-1.84c-.12,.06-.22-.04-.14-.17v-.93c-.08-.12,.02-.22,.14,.09h1.84c.12-.32,.22-.22,.02-.09v.93c.2,.12,.1,.22-.02,.17Z"/><path class="cls-7" d="M167.46,218.72h-1.84c-.12,.06-.22-.04-.57-.17v-.93c.35-.12,.45-.22,.57,.09h1.84c.12-.32,.22-.22-.41-.09v.93c.63,.12,.53,.22,.41,.17Z"/><path class="cls-7" d="M162.89,218.72h-1.84c-.12,.06-.22-.04,0-.17v-.93c-.23-.12-.13-.22,0,.09h1.84c.12-.32,.22-.22,.16-.09v.93c.06,.12-.04,.22-.16,.17Z"/><path class="cls-7" d="M231.51,220.72h-1.84c-.12,.34-.22,.24,.38,.12v-.93c-.6-.12-.5-.22-.38-.19h1.84c.12-.03,.22,.07,.54,.19v.93c-.31,.12-.41,.22-.54-.12Z"/><path class="cls-7" d="M226.94,220.72h-1.84c-.12,.34-.22,.24-.05,.12v-.93c-.17-.12-.07-.22,.05-.19h1.84c.12-.03,.22,.07,.11,.19v.93c.12,.12,.02,.22-.11-.12Z"/><path class="cls-7" d="M222.37,220.72h-1.84c-.12,.34-.22,.24-.48,.12v-.93c.26-.12,.36-.22,.48-.19h1.84c.12-.03,.22,.07-.32,.19v.93c.54,.12,.44,.22,.32-.12Z"/><path class="cls-7" d="M217.8,220.72h-1.84c-.12,.34-.22,.24,.09,.12v-.93c-.31-.12-.21-.22-.09-.19h1.84c.12-.03,.22,.07,.25,.19v.93c-.03,.12-.13,.22-.25-.12Z"/><path class="cls-7" d="M213.23,220.72h-1.84c-.12,.34-.22,.24-.34,.12v-.93c.11-.12,.21-.22,.34-.19h1.84c.12-.03,.22,.07-.18,.19v.93c.4,.12,.3,.22,.18-.12Z"/><path class="cls-7" d="M208.66,220.72h-1.84c-.12,.34-.22,.24,.23,.12v-.93c-.46-.12-.36-.22-.23-.19h1.84c.12-.03,.22,.07,.39,.19v.93c-.17,.12-.27,.22-.39-.12Z"/><path class="cls-7" d="M204.09,220.72h-1.84c-.12,.34-.22,.24-.19,.12v-.93c-.03-.12,.07-.22,.19-.19h1.84c.12-.03,.22,.07-.03,.19v.93c.26,.12,.16,.22,.03-.12Z"/><path class="cls-7" d="M199.51,220.72h-1.84c-.12,.34-.22,.24,.38,.12v-.93c-.6-.12-.5-.22-.38-.19h1.84c.12-.03,.22,.07,.54,.19v.93c-.31,.12-.41,.22-.54-.12Z"/><path class="cls-7" d="M194.94,220.72h-1.84c-.12,.34-.22,.24-.05,.12v-.93c-.17-.12-.07-.22,.05-.19h1.84c.12-.03,.22,.07,.11,.19v.93c.11,.12,.01,.22-.11-.12Z"/><path class="cls-7" d="M190.37,220.72h-1.84c-.12,.34-.22,.24-.48,.12v-.93c.26-.12,.36-.22,.48-.19h1.84c.12-.03,.22,.07-.32,.19v.93c.54,.12,.44,.22,.32-.12Z"/><path class="cls-7" d="M185.8,220.72h-1.84c-.12,.34-.22,.24,.09,.12v-.93c-.31-.12-.21-.22-.09-.19h1.84c.12-.03,.22,.07,.25,.19v.93c-.03,.12-.13,.22-.25-.12Z"/><path class="cls-7" d="M181.23,220.72h-1.84c-.12,.34-.22,.24-.34,.12v-.93c.11-.12,.21-.22,.34-.19h1.84c.12-.03,.22,.07-.18,.19v.93c.4,.12,.3,.22,.18-.12Z"/><path class="cls-7" d="M176.66,220.72h-1.84c-.12,.34-.22,.24,.23,.12v-.93c-.46-.12-.36-.22-.23-.19h1.84c.12-.03,.22,.07,.39,.19v.93c-.17,.12-.27,.22-.39-.12Z"/><path class="cls-7" d="M172.08,220.72h-1.84c-.12,.34-.22,.24-.19,.12v-.93c-.03-.12,.07-.22,.19-.19h1.84c.12-.03,.22,.07-.03,.19v.93c.26,.12,.16,.22,.03-.12Z"/><path class="cls-7" d="M167.51,220.72h-1.84c-.12,.34-.22,.24,.38,.12v-.93c-.6-.12-.5-.22-.38-.19h1.84c.12-.03,.22,.07,.54,.19v.93c-.31,.12-.41,.22-.54-.12Z"/><path class="cls-7" d="M162.94,220.72h-1.84c-.12,.34-.22,.24-.05,.12v-.93c-.17-.12-.07-.22,.05-.19h1.84c.12-.03,.22,.07,.11,.19v.93c.11,.12,.01,.22-.11-.12Z"/><path class="cls-7" d="M209.57,223.72h-17.84c-.12,.08-.22-.02,.32-.14v-.93c-.54-.12-.44-.22-.32,.06h17.84c.12-.29,.22-.19,.48-.06v.93c-.26,.12-.36,.22-.48,.14Z"/><path class="cls-7" d="M141.12,111.72h116.72c.26,0,.46-.23,.45-.51,0-.27-.21-.48-.45-.49h-116.72c-.26,0-.46,.23-.45,.51,0,.27,.21,.48,.45,.49Z"/><ellipse class="cls-7" cx="249.9" cy="105.9" rx="2.72" ry="2.78"/><ellipse class="cls-7" cx="240.5" cy="105.9" rx="2.72" ry="2.78"/><ellipse class="cls-7" cx="231.1" cy="105.9" rx="2.72" ry="2.78"/><path class="cls-7" d="M146.32,104.22c0,.27,.22,.5,.49,.5h6.61c.28,0,.49-.24,.49-.51,0-.27-.22-.48-.49-.49h-6.61c-.27,0-.49,.23-.49,.5Z"/><path class="cls-7" d="M146.32,106.22c0,.27,.22,.5,.49,.5h6.61c.28,0,.5-.24,.49-.51,0-.27-.22-.48-.49-.49h-6.61c-.27,0-.49,.23-.49,.5Z"/><path class="cls-7" d="M146.32,108.22c0,.27,.22,.5,.49,.5h6.61c.28,0,.49-.24,.49-.51,0-.27-.22-.48-.49-.49h-6.61c-.27,0-.49,.22-.49,.5h0Z"/><path class="cls-5" d="M145.94,122.72h2.4c.73,.04,1.32,.63,1.32,1.36h0c0,.73-.59,1.32-1.32,1.64h-2.4c-.73-.32-1.32-.91-1.32-1.64h0c0-.73,.59-1.32,1.32-1.36Z"/><path class="cls-5" d="M173.37,122.72h2.4c.73,.04,1.32,.63,1.32,1.36h0c0,.73-.59,1.32-1.32,1.64h-2.4c-.73-.32-1.32-.91-1.32-1.64h0c0-.73,.59-1.32,1.32-1.36Z"/><path class="cls-5" d="M181.14,122.72h2.4c.73,.04,1.32,.63,1.32,1.36h0c0,.73-.59,1.32-1.32,1.64h-2.4c-.73-.32-1.32-.91-1.32-1.64h0c0-.73,.59-1.32,1.32-1.36Z"/><path class="cls-5" d="M153.4,122.72h14.91c.73-.18,1.32,.41,1.32,1.14h0c0,.73-.59,1.32-1.32,1.86h-14.91c-.73-.54-1.32-1.13-1.32-1.86h0c0-.73,.59-1.32,1.32-1.14Z"/><path class="cls-5" d="M189.98,122.72h14.91c.73-.18,1.32,.41,1.32,1.14h0c0,.73-.59,1.32-1.32,1.86h-14.91c-.73-.54-1.32-1.13-1.32-1.86h0c0-.73,.59-1.32,1.32-1.14Z"/><path class="cls-5" d="M153.26,128.72h2.4c.73-.01,1.32,.58,1.32,1.3h0c0,.73-.59,1.32-1.32,1.7h-2.4c-.73-.38-1.32-.97-1.32-1.7h0c0-.73,.59-1.32,1.32-1.3Z"/><path class="cls-5" d="M180.69,128.72h2.4c.73-.01,1.32,.58,1.32,1.3h0c0,.73-.59,1.32-1.32,1.7h-2.4c-.73-.38-1.32-.97-1.32-1.7h0c0-.73,.59-1.32,1.32-1.3Z"/><path class="cls-5" d="M188.46,128.72h2.4c.73-.01,1.32,.58,1.32,1.3h0c0,.73-.59,1.32-1.32,1.7h-2.4c-.73-.38-1.32-.97-1.32-1.7h0c0-.73,.59-1.32,1.32-1.3Z"/><path class="cls-5" d="M160.72,128.72h14.91c.73-.23,1.32,.36,1.32,1.08h0c0,.73-.59,1.32-1.32,1.92h-14.91c-.73-.6-1.32-1.19-1.32-1.92h0c0-.73,.59-1.32,1.32-1.08Z"/><path class="cls-5" d="M197.29,128.72h14.91c.73-.23,1.32,.36,1.32,1.08h0c0,.73-.59,1.32-1.32,1.92h-14.91c-.73-.6-1.32-1.19-1.32-1.92h0c0-.73,.59-1.32,1.32-1.08Z"/><path class="cls-5" d="M160.57,134.72h2.4c.73-.07,1.32,.52,1.32,1.25h0c0,.73-.59,1.32-1.32,1.75h-2.4c-.73-.44-1.32-1.03-1.32-1.75h0c0-.73,.59-1.32,1.32-1.25Z"/><path class="cls-5" d="M188,134.72h2.4c.73-.07,1.32,.52,1.32,1.25h0c0,.73-.59,1.32-1.32,1.75h-2.4c-.73-.44-1.32-1.03-1.32-1.75h0c0-.73,.59-1.32,1.32-1.25Z"/><path class="cls-5" d="M195.77,134.72h2.4c.73-.07,1.32,.52,1.32,1.25h0c0,.73-.59,1.32-1.32,1.75h-2.4c-.73-.44-1.32-1.03-1.32-1.75h0c0-.73,.59-1.32,1.32-1.25Z"/><path class="cls-5" d="M168.03,134.72h14.91c.73-.29,1.32,.3,1.32,1.03h0c0,.73-.59,1.32-1.32,1.97h-14.91c-.73-.66-1.32-1.25-1.32-1.97h0c0-.73,.59-1.32,1.32-1.03Z"/><path class="cls-5" d="M204.61,134.72h14.91c.73-.29,1.32,.3,1.32,1.03h0c0,.73-.59,1.32-1.32,1.97h-14.91c-.73-.66-1.32-1.25-1.32-1.97h0c0-.73,.59-1.32,1.32-1.03Z"/><path class="cls-5" d="M167.89,140.72h2.4c.73-.13,1.32,.46,1.32,1.19h0c0,.73-.59,1.32-1.32,1.81h-2.4c-.73-.49-1.32-1.08-1.32-1.81h0c0-.73,.59-1.32,1.32-1.19Z"/><path class="cls-5" d="M195.32,140.72h2.4c.73-.13,1.32,.46,1.32,1.19h0c0,.73-.59,1.32-1.32,1.81h-2.4c-.73-.49-1.32-1.08-1.32-1.81h0c0-.73,.59-1.32,1.32-1.19Z"/><path class="cls-5" d="M203.09,140.72h2.4c.73-.13,1.32,.46,1.32,1.19h0c0,.73-.59,1.32-1.32,1.81h-2.4c-.73-.49-1.32-1.08-1.32-1.81h0c0-.73,.59-1.32,1.32-1.19Z"/><path class="cls-5" d="M175.35,139.72h14.91c.73,.65,1.32,1.24,1.32,1.97h0c0,.73-.59,1.32-1.32,1.03h-14.91c-.73,.29-1.32-.3-1.32-1.03h0c0-.73,.59-1.32,1.32-1.97Z"/><path class="cls-5" d="M173.37,163.72h2.4c.73,.5,1.32,1.09,1.32,1.82h0c0,.73-.59,1.32-1.32,1.18h-2.4c-.73,.14-1.32-.45-1.32-1.18h0c0-.73,.59-1.32,1.32-1.82Z"/><path class="cls-5" d="M181.14,163.72h2.4c.73,.5,1.32,1.09,1.32,1.82h0c0,.73-.59,1.32-1.32,1.18h-2.4c-.73,.14-1.32-.45-1.32-1.18h0c0-.73,.59-1.32,1.32-1.82Z"/><path class="cls-5" d="M189.98,164.72h14.91c.73-.28,1.32,.31,1.32,1.04h0c0,.73-.59,1.32-1.32,1.96h-14.91c-.73-.64-1.32-1.23-1.32-1.96h0c0-.73,.59-1.32,1.32-1.04Z"/><path class="cls-5" d="M145.94,163.72h2.4c.73,.5,1.32,1.09,1.32,1.82h0c0,.73-.59,1.32-1.32,1.18h-2.4c-.73,.14-1.32-.45-1.32-1.18h0c0-.73,.59-1.32,1.32-1.82Z"/><path class="cls-5" d="M153.4,164.72h14.91c.73-.28,1.32,.31,1.32,1.04h0c0,.73-.59,1.32-1.32,1.96h-14.91c-.73-.64-1.32-1.23-1.32-1.96h0c0-.73,.59-1.32,1.32-1.04Z"/><path class="cls-5" d="M153.26,157.72h2.4c.73,.56,1.32,1.15,1.32,1.88h0c0,.73-.59,1.32-1.32,1.12h-2.4c-.73,.19-1.32-.39-1.32-1.12h0c0-.73,.59-1.32,1.32-1.88Z"/><path class="cls-5" d="M180.69,157.72h2.4c.73,.56,1.32,1.15,1.32,1.88h0c0,.73-.59,1.32-1.32,1.12h-2.4c-.73,.19-1.32-.39-1.32-1.12h0c0-.73,.59-1.32,1.32-1.88Z"/><path class="cls-5" d="M188.46,157.72h2.4c.73,.56,1.32,1.15,1.32,1.88h0c0,.73-.59,1.32-1.32,1.12h-2.4c-.73,.19-1.32-.39-1.32-1.12h0c0-.73,.59-1.32,1.32-1.88Z"/><path class="cls-5" d="M160.72,158.72h14.91c.73-.22,1.32,.37,1.32,1.1h0c0,.73-.59,1.32-1.32,1.9h-14.91c-.73-.59-1.32-1.18-1.32-1.9h0c0-.73,.59-1.32,1.32-1.1Z"/><path class="cls-5" d="M160.57,151.72h2.4c.73,.62,1.32,1.21,1.32,1.94h0c0,.73-.59,1.32-1.32,1.06h-2.4c-.73,.25-1.32-.34-1.32-1.06h0c0-.73,.59-1.32,1.32-1.94Z"/><path class="cls-5" d="M188,151.72h2.4c.73,.62,1.32,1.21,1.32,1.94h0c0,.73-.59,1.32-1.32,1.06h-2.4c-.73,.25-1.32-.34-1.32-1.06h0c0-.73,.59-1.32,1.32-1.94Z"/><path class="cls-5" d="M195.77,151.72h2.4c.73,.62,1.32,1.21,1.32,1.94h0c0,.73-.59,1.32-1.32,1.06h-2.4c-.73,.25-1.32-.34-1.32-1.06h0c0-.73,.59-1.32,1.32-1.94Z"/><path class="cls-5" d="M168.03,152.72h14.91c.73-.16,1.32,.43,1.32,1.15h0c0,.73-.59,1.32-1.32,1.85h-14.91c-.73-.53-1.32-1.12-1.32-1.85h0c0-.73,.59-1.32,1.32-1.15Z"/><path class="cls-5" d="M167.89,145.72h2.4c.73,.68,1.32,1.27,1.32,1.99h0c0,.73-.59,1.32-1.32,1.01h-2.4c-.73,.31-1.32-.28-1.32-1.01h0c0-.73,.59-1.32,1.32-1.99Z"/><path class="cls-5" d="M195.32,145.72h2.4c.73,.68,1.32,1.27,1.32,1.99h0c0,.73-.59,1.32-1.32,1.01h-2.4c-.73,.31-1.32-.28-1.32-1.01h0c0-.73,.59-1.32,1.32-1.99Z"/><path class="cls-5" d="M203.09,145.72h2.4c.73,.68,1.32,1.27,1.32,1.99h0c0,.73-.59,1.32-1.32,1.01h-2.4c-.73,.31-1.32-.28-1.32-1.01h0c0-.73,.59-1.32,1.32-1.99Z"/><path class="cls-5" d="M175.35,146.72h14.91c.73-.1,1.32,.48,1.32,1.21h0c0,.73-.59,1.32-1.32,1.79h-14.91c-.73-.47-1.32-1.06-1.32-1.79h0c0-.73,.59-1.32,1.32-1.21Z"/><path class="cls-7" d="M159.96,249.58c-.1,.05-.2,.1-.3,.15-.64,.32-1.28,.63-1.92,.93-1.93,.92-3.88,1.79-5.86,2.62-5.2,2.18-10.54,4.01-15.99,5.5-.91-5.7-1.8-19.15-2.65-29.03-.16-1.86-.32-3.59-.48-5.12-.15-2.01-.44-4.01-.86-5.98-.04-.15-.1-.3-.18-.44,.09,.79,.18,3.15,.27,6.42,.05,1.53,.09,3.26,.13,5.12,.21,9.52,.44,22.47,.66,29.84-.64,.16-1.28,.31-1.92,.46-.4,.1-.81,.19-1.22,.27-.49,.11-.99,.22-1.48,.32-.52,.11-1.03,.21-1.55,.32-8.44,1.66-17.02,2.49-25.63,2.49-.57,0-1.14,0-1.71,0-.17,0-.35,0-.53,0-.5,0-1.02-.02-1.55-.03-10.17-.28-30.15-4.34-30.15-4.34l1-29.31-1-5.12v-1.94s.18,1.28,.14,1.94c-.16,1.25-.32,3.02-.49,5.12-.63,8.12-1.27,21.22-1.94,28.67-7.9-2.25-13.68-4.3-20.91-7.91-.28-.14-.56-.28-.84-.42,.05-.35,.11-.7,.16-1.07,.82-5.69-.15-13.09,.76-19.27,.69-4.77,1.4-9.35,2.12-13.23,.87-4.68,1.75-8.35,2.62-10.14,1.01-2.06,2.01-4.09,2.99-6.03,.42-.84,.83-1.66,1.24-2.46,.22-.43,.44-.86,.65-1.28,.98-1.92,1.9-3.68,2.75-5.25,.59-1.1,1.14-2.1,1.65-2.97,.59-1.03,1.11-1.88,1.54-2.52,3.17-4.81,7.9-8.39,13.39-10.15l.14-.04,.13,.05,.15,.07,8.71-3.19,3.89-9.37,19.98-1.23,3.23,2.45,1.65,1.26,1.76,1.34,3.24,2.46,.92,.28,1.37,.42,9.35,2.87,.1-.04,.14,.04c4.99,1.6,9.37,4.71,12.51,8.91,.31,.4,.6,.82,.88,1.24,.76,1.12,1.78,2.9,2.99,5.13,.5,.92,1.02,1.92,1.58,2.97,.33,.64,3.21,9.62,6.02,18.8,2.62,8.59,5.17,17.36,5.5,19.61,.06,.42,.12,.84,.18,1.25,.38,2.6,.75,5.22,1.12,7.78,.53,3.79,1.06,7.45,1.55,10.72,0,.03,0,.06,.01,.09Z"/><polygon class="cls-9" points="138.79 216.49 134.9 201.5 131.47 214.44 138.79 216.49"/><path class="cls-8" d="M7.24,216.32c.41,1.2,1.55,2,2.83,1.98l12.11-.31c1.28-.02,2.4-.89,2.73-2.13l1.71-18.33c.61,.28,1.27,.41,1.94,.4,2.44-.06,4.37-2.09,4.3-4.53-.06-2.44-2.09-4.37-4.53-4.3h0c-.27,0-.53,.03-.79,.08-.57-.62-1.38-.97-2.23-.96l-18.63,.48c-.15,0-.31,.02-.46,.06-1.58,.29-2.62,1.81-2.33,3.39,.02,.13,.06,.26,.1,.38l3.24,23.78Zm19.74-20.03l1.22-4.37c.14-.5,.14-1.04,0-1.54,.06,0,.11-.03,.17-.03,1.74-.04,3.19,1.35,3.22,3.09,.04,1.74-1.34,3.18-3.08,3.22-.54,.02-1.08-.11-1.55-.38h0Z"/><path class="cls-7" d="M6.23,188.76c.4,2.27,4.86,3.86,10.22,3.59,4.93-.23,8.97-1.96,9.71-4.01-.27-.08-.56-.12-.84-.11l-18.63,.48c-.15,0-.31,.02-.46,.06Z"/><path class="cls-3" d="M17.43,206.25s.05-.02,.07-.03l2.63-1.72c.11-.07,.13-.21,.07-.32-.02-.03-.04-.05-.07-.07l-2.73-1.79c-.11-.07-.25-.04-.32,.07s-.04,.25,.07,.32h0l2.44,1.6-2.34,1.53c-.11,.07-.14,.21-.07,.32,.05,.08,.15,.12,.25,.1h0Z"/><path class="cls-3" d="M13.28,206.44c.12-.03,.2-.16,.17-.28-.02-.06-.05-.11-.11-.14l-2.42-1.39,2.34-1.74c.1-.07,.12-.22,.05-.32-.07-.1-.22-.12-.32-.05h0l-2.62,1.95c-.1,.08-.12,.22-.05,.32,.02,.03,.04,.05,.07,.06l2.73,1.56c.05,.03,.11,.04,.17,.02Z"/><path class="cls-3" d="M17.17,207.76s.04-.01,.06-.03c.11-.07,.14-.21,.08-.31h0l-3.73-6.13c-.07-.11-.21-.14-.31-.07-.11,.07-.14,.21-.08,.31l3.73,6.13c.05,.09,.15,.13,.25,.1Z"/><path class="cls-7" d="M358.93,250.08c-.28,.14-.56,.28-.84,.42-7.22,3.61-13,5.66-20.91,7.91-.67-7.45-1.31-20.55-1.94-28.67-.16-2.11-.33-3.88-.49-5.12-.04-.66-.71-1.94-.71-1.94l1,1.94-1,5.12v29.31s-19.13,4.06-29.3,4.34c-.53,.01-1.05,.02-1.55,.03-.18,0-.35,0-.53,0-.57,0-1.14,0-1.71,0-10.71,0-21.39-1.29-31.79-3.85,.22-7.37,.45-20.33,.66-29.84,.05-1.86,.09-3.59,.13-5.12,.09-3.27,.18-5.63,.27-6.42-.08,.14-.14,.29-.18,.44-.42,1.97-.71,3.97-.86,5.98-.16,1.53-.32,3.26-.48,5.12-.85,9.89-1.74,23.33-2.65,29.03-5.44-1.49-10.78-3.32-15.99-5.5-2.74-1.14-5.44-2.38-8.08-3.7,.5-3.29,1.03-6.98,1.57-10.81,.42-2.97,.85-6.02,1.3-9.03,.69-4.65,23.98-54.91,29.47-56.67l.14-.04,.1,.04,9.35-2.87,1.37-.42,.92-.28,3.24-2.46,1.76-1.34,1.65-1.26,3.23-2.45,19.98,1.23,3.89,9.37,8.71,3.19,.15-.07,.13-.05,.14,.04c5.49,1.76,10.21,5.34,13.39,10.15,.43,.64,.95,1.49,1.54,2.52,.5,.87,1.05,1.87,1.65,2.97,.85,1.57,1.77,3.34,2.75,5.25,.21,.42,.43,.85,.65,1.28,.41,.8,.82,1.63,1.24,2.46,.97,1.94,1.98,3.97,2.99,6.03,.87,1.79,1.76,5.46,2.62,10.14,.72,3.89,1.43,8.47,2.12,13.23,.91,6.18-.06,13.58,.76,19.27,.05,.36,.11,.71,.16,1.07Z"/><circle class="cls-4" cx="300.33" cy="135.39" r="23.24"/><polygon class="cls-9" points="263.16 216.49 267.05 201.5 270.48 214.44 263.16 216.49"/><path class="cls-8" d="M366.53,206.72c-1.39,19.15,.05,27.58-7.62,43.36-6.98,3.42-14.25,6.2-21.72,8.33-.78,.22-1.56,.43-2.34,.64-9.83,2.6-19.93,4.06-30.1,4.34-.53,.01-1.05,.02-1.55,.03-.18,0-.35,0-.53,0-.57,0-1.14,0-1.71,0-10.71,0-21.39-1.29-31.79-3.85-1.04-.26-2.08-.53-3.11-.81-5.44-1.49-10.78-3.32-15.99-5.5-2.74-1.14-5.44-2.38-8.08-3.7-.6-.3-1.2-.6-1.79-.91-3.03-5.33-4.75-11.81-4.79-19.6,2.1-13.42,126.48-33.92,131.12-22.34Z"/><path class="cls-9" d="M366.53,210c.07-1.19,.15-2.41,.24-3.68-4.64-11.58-129.02,8.92-131.12,22.34,0,1.23,.06,2.42,.15,3.59,5.08-13.25,123.25-32.73,130.73-22.25Z"/><path class="cls-4" d="M232.32,207.63l10.21-5.1-8.51-22.97-2.24-11.59c-.92-4.75-5.51-7.85-10.26-6.94-1.49,.29-2.88,.96-4.04,1.95h0c-3.59,3.07-4.09,8.44-1.14,12.12l8.32,10.4,7.66,22.12Z"/><path class="cls-7" d="M242.53,198.27l-13.61,6.81,10.33,32.37c1.51,4.73,5.38,8.32,10.21,9.47h0c6.01,1.43,12.25-1.2,15.42-6.49l27.39-46.96c4.04-6.73,1.97-15.45-4.66-19.65h0c-6.74-4.27-15.67-2.27-19.95,4.48-.28,.44-.53,.89-.76,1.36l-16.72,35.63-7.66-17.02Z"/><circle class="cls-6" cx="95.78" cy="131.45" r="25.57"/><path class="cls-8" d="M70.51,113.83c2.08-2.8,5.07-4.79,7.35-7.43,1.25-1.45,2.3-3.09,3.71-4.38,2.62-2.41,6.28-3.39,9.84-3.51,7.9-.2,15.43,3.37,20.27,9.62,1.86-1.09,3.72-2.18,5.57-3.27,.73,1.93,1.47,3.86,2.2,5.8,1.41-1.22,3.54-1.07,4.77,.33,.94,1.08,1.1,2.65,.38,3.89,.44-1.37,2.47-1.66,3.59-.75,1.12,.9,1.42,2.51,1.23,3.93-.47,3.2-2.83,5.79-5.97,6.55-2.42,.54-5.25-.03-7.19,1.52-1.56,1.24-2.03,3.51-3.61,4.71-1.96,1.48-4.72,.8-7.15,1.12-4.26,.57-7.62,4.92-7.11,9.19-.38-1.35-.79-2.73-1.66-3.82-.87-1.09-2.35-1.83-3.69-1.43-2.22,.66-2.58,3.68-2.04,5.93,1.42,5.97,6.82,15.61,6.82,15.61-7.01,2.76-15.36,.15-20.76-5.09-5.41-5.24-8.22-12.67-9.45-20.1-1.04-6.3-.89-13.28,2.91-18.41Z"/><path class="cls-8" d="M329.87,148.2c4.86-11.15,2.11-21.42-3.82-26.86h0c-2.33-5.23-5.43-9.26-8.98-10.21-1.71-1.1-3.38-2.4-5.23-3.05-1.74-.65-3.67-.56-5.34,.24l-.94-.25c-.8-2.04-1.74-2.08-2.78-.74-4.01-1.87-7.63-2.71-10.85-2.71-10.5,0-16.7,8.89-18.35,19.63l8.77,2.34,3.05-4.86-1.41,5.3,4.84,1.28c7.37,9.6-1.45,31.73-12.63,44.05,2.66-.74,5.31-1.36,7.95-1.87l9.59-14.06-5.94,12.8c3.09-.45,7.02-.02,11.32,.85,1.45-1.89,2.21-4.42,1.46-6.67,1.23,2.37,2.07,4.92,2.51,7.56,9.08,2.22,21.46,3.36,28.14,4.2,5.39-1.76,5.41-21.64-1.37-26.97Z"/><path class="cls-8" d="M332.62,110.26c3.56,7.98-3.63,11.41-10.21,11.31-5.95-.09-11.01-4.27-11.31-10.21-.3-5.94,4.27-11.01,10.21-11.31h0c5.94-.3,8.89,4.78,11.31,10.21Z"/><path class="cls-6" d="M167.31,240.15l-5.87-9.79,19.52-14.81,8.11-8.57c3.33-3.51,8.87-3.66,12.38-.34,1.1,1.04,1.92,2.36,2.36,3.81h0c1.37,4.52-1.08,9.31-5.55,10.84l-12.61,4.3-18.34,14.55Z"/><path class="cls-7" d="M171.55,239.82l-9.14,7.62-2.46,2.05-.29,.24c-.64,.32-1.28,.63-1.92,.93-1.93,.92-3.88,1.79-5.86,2.62-5.2,2.18-10.54,4.01-15.99,5.5-1.03,.28-2.07,.55-3.11,.81-.64,.16-1.28,.31-1.92,.46-.4,.1-.81,.19-1.22,.27-.49,.11-.99,.22-1.48,.32-.52,.11-1.03,.21-1.55,.32-2.81-2.67-4.4-6.38-4.4-10.26,0-.12,0-.25,0-.38l1.47-37.64,.65-16.68c.21-7.85,6.64-14.09,14.49-14.07,.44,0,.87,.02,1.3,.06,.31,.4,.6,.82,.88,1.24,.76,1.12,1.78,2.9,2.99,5.13,.5,.92,1.02,1.92,1.58,2.97,.33,.64,3.21,9.62,6.02,18.8l-1.23,9.59-2.23,17.28,9.15-6.01,6.45-4.23,.76,1.28,1.99,3.32,3.84,6.4,1.23,2.06Z"/><path class="cls-8" d="M166.54,229.07c0,.78-.02,1.54-.06,2.29-.1,2.08-.34,4.15-.72,6.2-.63,3.44-1.76,6.76-3.34,9.88-.21,.42-.43,.83-.66,1.23-.59,.31-1.19,.61-1.79,.91-.1,.05-.2,.1-.3,.15-2.55,1.27-5.14,2.45-7.78,3.55-5.2,2.18-10.54,4.01-15.99,5.5-1.03,.28-2.07,.55-3.11,.81-2.03,.5-4.09,.96-6.16,1.37-8.44,1.66-17.02,2.49-25.63,2.49-.57,0-1.14,0-1.71,0-.17,0-.35,0-.53,0-.5,0-1.02-.02-1.55-.03-10.17-.28-20.27-1.74-30.1-4.34-.78-.21-1.56-.42-2.34-.64-7.47-2.13-14.74-4.91-21.72-8.33-7.67-15.79-6.23-24.22-7.62-43.36,2.85-7.13,51.11-2.09,88.27,5.96,10.08,2.19,19.35,4.59,26.67,7.04,7.56,2.53,13.04,5.1,15.19,7.51,.5,.5,.85,1.14,.99,1.83Z"/><path class="cls-9" d="M35.42,210c-.07-1.19-.15-2.41-.24-3.68,4.64-11.58,129.02,8.92,131.12,22.34,0,1.23-.06,2.42-.15,3.59-5.08-13.25-123.25-32.73-130.73-22.25Z"/></g></g></svg>