<?xml version="1.0" encoding="UTF-8"?><svg id="Layer_2" xmlns="http://www.w3.org/2000/svg" viewBox="0 0 399.7 270.79"><defs><style>.cls-1{fill:#f0f0f0;}.cls-2,.cls-3,.cls-4{fill:#fff;}.cls-5{fill:#3f3d56;}.cls-6{fill:#2f2e41;}.cls-3{opacity:.3;}.cls-3,.cls-4{isolation:isolate;}.cls-4{opacity:.4;}</style></defs><g id="Layer_1-2"><g><circle class="cls-4" cx="270.83" cy="138.38" r="29.86"/><rect class="cls-5" x="105" y="179.64" width="167" height="45"/><path class="cls-1" d="M260.85,68.14l-6.65,3.15,5.88-4.4c-.96-1.49-2.03-2.91-3.21-4.23l-28.83,7.17,26.05-9.94c-1.19-1.05-2.45-2.01-3.78-2.88l-43.94,7.08c-4.66,5.83-7.21,13.08-7.21,20.55h66.14c0-5.79-1.53-11.48-4.44-16.49Z"/><path class="cls-1" d="M266.11,19.53C239.69,6.64,210.66-.04,181.26,0,121.41,0,67.91,27.14,32.37,69.77c60.85-13.33,166.81-36.42,233.74-50.24Z"/><rect class="cls-6" y="269.64" width="397" height="1"/><path class="cls-5" d="M231.78,84.64l-22.51-33.44s34.09,11.9,30.22,33.44h-7.71Z"/><path class="cls-2" d="M232.66,84.64l22.51-33.44s-34.09,11.9-30.22,33.44h7.71Z"/><path class="cls-6" d="M272,270.64H105V21.64h167v249Zm-166-1h165V22.64H106v247Z"/><rect class="cls-6" x="105" y="27.64" width="166" height="1"/><circle class="cls-2" cx="109.68" cy="24.86" r="1.56"/><circle class="cls-2" cx="113.96" cy="24.86" r="1.56"/><circle class="cls-2" cx="118.23" cy="24.86" r="1.56"/><rect class="cls-2" x="111" y="32.64" width="7" height="4"/><rect class="cls-2" x="111" y="63.64" width="34" height="4"/><rect class="cls-1" x="233" y="32.64" width="34" height="4"/><rect class="cls-1" x="111" y="70.64" width="58" height="2"/><rect class="cls-1" x="111" y="75.64" width="54" height="2"/><rect class="cls-1" x="111" y="80.64" width="40" height="2"/><rect class="cls-1" x="124" y="149.64" width="23" height="2"/><rect class="cls-1" x="125" y="154.64" width="21" height="2"/><rect class="cls-1" x="124" y="159.64" width="16" height="2"/><rect class="cls-1" x="177" y="149.64" width="23" height="2"/><rect class="cls-1" x="177" y="154.64" width="21" height="2"/><rect class="cls-1" x="177" y="159.64" width="16" height="2"/><rect class="cls-1" x="231" y="149.64" width="23" height="2"/><rect class="cls-1" x="232" y="154.64" width="21" height="2"/><rect class="cls-1" x="231" y="159.64" width="16" height="2"/><rect class="cls-2" x="160" y="237.64" width="34" height="4"/><rect class="cls-1" x="159" y="244.64" width="58" height="2"/><rect class="cls-1" x="160" y="249.64" width="54" height="2"/><rect class="cls-1" x="159" y="254.64" width="40" height="2"/><rect class="cls-3" x="122" y="105.64" width="135" height="1"/><rect class="cls-3" x="121" y="119.64" width="29" height="26"/><rect class="cls-5" x="174" y="119.64" width="29" height="26"/><rect class="cls-5" x="228" y="119.64" width="29" height="26"/><path class="cls-2" d="M184.51,144.96h-.38c0-.43,.25-10.34,4.15-13.08l.22,.31c-3.74,2.63-3.98,12.67-3.99,12.77Z"/><circle class="cls-2" cx="190.29" cy="129.86" r="1.9"/><path class="cls-2" d="M189.9,136.56c-.99,.31-2.04,.36-3.05,.13,1.31-1.67,3.48-2.41,5.54-1.9-.66,.8-1.52,1.41-2.49,1.77Z"/><path class="cls-2" d="M238.97,144.96h-.38c0-.43,.25-10.34,4.15-13.08l.22,.31c-3.74,2.63-3.98,12.67-3.99,12.77Z"/><circle class="cls-2" cx="244.75" cy="129.86" r="1.9"/><path class="cls-2" d="M244.37,136.56c-.99,.31-2.04,.36-3.05,.13,1.31-1.67,3.48-2.41,5.54-1.9-.66,.8-1.52,1.41-2.49,1.77Z"/><rect class="cls-2" x="111" y="193.64" width="34" height="4"/><rect class="cls-1" x="111" y="200.64" width="58" height="2"/><rect class="cls-1" x="111" y="205.64" width="54" height="2"/><rect class="cls-1" x="111" y="210.64" width="40" height="2"/><circle class="cls-4" cx="237.96" cy="199.46" r="12.16"/><circle class="cls-4" cx="215.46" cy="205.26" r="8.53"/><circle class="cls-6" cx="65.13" cy="226.57" r="30.73"/><rect class="cls-6" x="51" y="250.64" width="9" height="17"/><rect class="cls-6" x="70" y="250.64" width="9" height="17"/><ellipse class="cls-6" cx="58.91" cy="267.62" rx="7.78" ry="2.92"/><ellipse class="cls-6" cx="77.58" cy="267.23" rx="7.78" ry="2.92"/><circle class="cls-2" cx="65.91" cy="218.79" r="10.5"/><circle class="cls-5" cx="65.91" cy="214.12" r="3.5"/><path class="cls-2" d="M35.32,197.99c-2.48-11.11,5.45-22.34,17.72-25.08,12.27-2.74,24.22,4.05,26.7,15.16,2.48,11.11-5.65,15.21-17.92,17.95-12.27,2.74-24.03,3.08-26.51-8.03Z"/><ellipse class="cls-6" cx="88.39" cy="192.57" rx="15.37" ry="4.82" transform="translate(-123.49 191.57) rotate(-65.08)"/><ellipse class="cls-6" cx="31.98" cy="201.9" rx="4.82" ry="15.37" transform="translate(-90.74 38.42) rotate(-27.89)"/><ellipse class="cls-6" cx="318.98" cy="203.72" rx="4.82" ry="15.37" transform="translate(-51.92 128.35) rotate(-21.08)"/><circle class="cls-6" cx="347.45" cy="226.85" r="30.73"/><rect class="cls-6" x="351.98" y="250.62" width="9.05" height="17.03" transform="translate(-.76 1.05) rotate(-.17)"/><rect class="cls-6" x="333.98" y="250.62" width="9.05" height="17.03" transform="translate(-.76 1) rotate(-.17)"/><ellipse class="cls-6" cx="353.79" cy="267.87" rx="7.78" ry="2.92" transform="translate(-.75 .99) rotate(-.16)"/><ellipse class="cls-6" cx="335.11" cy="267.54" rx="7.78" ry="2.92" transform="translate(-.75 .94) rotate(-.16)"/><circle class="cls-2" cx="346.65" cy="219.07" r="10.5"/><circle class="cls-5" cx="346.65" cy="219.07" r="3.5"/><path class="cls-2" d="M377.18,198.18c2.45-11.12-5.51-22.33-17.79-25.03-12.27-2.7-24.21,4.12-26.66,15.24s5.69,15.2,17.97,17.9c12.27,2.7,24.03,3.01,26.48-8.11Z"/><ellipse class="cls-6" cx="382.02" cy="212.49" rx="15.37" ry="4.82" transform="translate(-54.28 185.43) rotate(-25.53)"/><path class="cls-2" d="M362.58,237.89c0,3.01-7.72,8.97-16.31,8.99-8.59,.02-16.68-8.42-16.68-11.43s8.06,.56,16.65,.54c8.59-.02,16.34-1.11,16.34,1.9Z"/><circle class="cls-4" cx="356.81" cy="182.34" r="42.89"/><circle class="cls-6" cx="74.04" cy="135.61" r="30.73"/><rect class="cls-6" x="50.7" y="161.25" width="16.73" height="9.34" transform="translate(-114.71 194.48) rotate(-79.74)"/><rect class="cls-6" x="69.08" y="164.57" width="16.73" height="9.34" transform="translate(-102.89 215.3) rotate(-79.74)"/><ellipse class="cls-6" cx="77.56" cy="179.54" rx="2.92" ry="7.78" transform="translate(-109.58 122.69) rotate(-49.74)"/><ellipse class="cls-6" cx="59.56" cy="176.28" rx="2.92" ry="7.78" transform="translate(-113.45 107.81) rotate(-49.74)"/><circle class="cls-2" cx="76.19" cy="128.1" r="10.5"/><circle class="cls-5" cx="80.51" cy="124.33" r="3.5"/><path class="cls-2" d="M49.8,102.18c-.46-11.38,9.34-21.02,21.9-21.53,12.56-.51,23.11,8.3,23.58,19.68,.46,11.38-8.27,13.96-20.83,14.47-12.56,.51-24.19-1.25-24.65-12.63Z"/><ellipse class="cls-6" cx="102.42" cy="130.01" rx="15.37" ry="4.82" transform="translate(-26.46 26.17) rotate(-12.91)"/><ellipse class="cls-6" cx="42.09" cy="140.05" rx="15.37" ry="4.82" transform="translate(-30.23 12.94) rotate(-12.91)"/><path class="cls-2" d="M65.6,147.72c-.69,3.81,1.84,7.45,5.65,8.14,3.8,.69,7.45-1.84,8.14-5.64,.69-3.81-2.25-5.15-6.06-5.84s-7.03-.46-7.72,3.35Z"/><rect class="cls-5" x="116.09" y="104.42" width="25.68" height="28.79" transform="translate(-21.9 208.19) rotate(-73.31)"/><path class="cls-2" d="M121.68,129.93l-.36-.12c.13-.4,3.2-9.83,7.73-11.33l.12,.36c-4.34,1.44-7.45,10.99-7.49,11.09Z"/><circle class="cls-2" cx="131.55" cy="117.12" r="1.9"/><path class="cls-2" d="M129.26,123.43c-1.04,.01-2.06-.25-2.96-.75,1.74-1.22,4.03-1.31,5.85-.23-.86,.57-1.86,.91-2.89,.98Z"/></g></g></svg>