<?xml version="1.0" encoding="UTF-8"?><svg id="Layer_2" xmlns="http://www.w3.org/2000/svg" viewBox="0 0 498 408"><defs><style>.cls-1{letter-spacing:-.01em;}.cls-2{fill:#fff;}.cls-3{fill:#f1f1f1;}.cls-4{fill:#e5e5e5;}.cls-5{fill:#9f616a;}.cls-6{fill:#cbcbcb;}.cls-7{fill:#3f3d56;}.cls-8{fill:#2f2e41;}.cls-9{font-family:MyriadPro-Regular, 'Myriad Pro';font-size:12px;}.cls-10{letter-spacing:-.01em;}</style></defs><g id="Layer_1-2"><g><path class="cls-3" d="M211.75,392.04c1.79,.12,2.78-2.17,1.42-3.5l-.13-.55c.46-1.14,.97-2.26,2.68-2.9,2.93-1.08,6.15,.53,7.37,3.47,1.54,3.72,3.37,7.46,3.84,11.39,.22,1.84,.12,3.71-.27,5.52,3.73-8.38,5.69-17.52,5.69-26.72,0-2.31-.12-4.62-.37-6.93-.21-1.89-.49-3.76-.86-5.62-1.99-10.04-6.31-19.6-12.54-27.59-3-1.68-5.49-4.32-7-7.47-.54-1.14-.97-2.36-1.17-3.61,.34,.05,1.29-5.3,1.03-5.62,.48-.74,1.33-1.11,1.84-1.83,2.58-3.6,6.13-2.97,7.99,1.92,3.96,2.06,4,5.47,1.57,8.76-1.55,2.09-1.76,4.92-3.12,7.15,.14,.18,.29,.36,.42,.55,2.56,3.38,4.78,7.01,6.65,10.83-.53-4.24,.25-9.35,1.58-12.65,1.52-3.76,4.36-6.93,6.86-10.18,3.01-3.92,9.15-2.12,9.67,2.85v.06c-.35,.21-.7,.42-1.04,.65-2.04,1.38-1.33,4.64,1.08,5.03h0c-.13,1.37-.36,2.74-.7,4.08,3.2,12.74-3.7,17.38-13.57,17.59l-.52,.76c.93,2.76,1.68,5.59,2.25,8.46,.53,2.66,.9,5.35,1.11,8.05,.26,3.41,.23,6.84-.04,10.24l.02-.12c.71-3.75,2.69-7.25,5.56-9.68,4.28-3.62,10.32-4.95,14.94-7.85,2.22-1.4,5.07,.41,4.68,3.06l-.02,.13c-.69,.29-1.36,.62-2.01,.99-.36,.21-.7,.42-1.04,.66-2.04,1.38-1.33,4.64,1.08,5.03h0s.07,.01,.11,.02c-1.18,2.88-2.82,5.55-4.88,7.86-2,11.12-10.6,12.18-19.8,8.94h0c-1.01,4.51-2.48,8.91-4.36,13.11h-15.59c-.06-.18-.11-.36-.16-.54,1.44,.09,2.89,0,4.31-.26-1.16-1.46-2.31-2.93-3.47-4.39-.03-.03-.05-.06-.07-.09-.59-.75-1.18-1.49-1.77-2.24h0c-.04-2.3,.23-4.58,.76-6.8h0Z"/><path class="cls-6" d="M0,406.95c0,.6,.47,1.08,1.05,1.05H357.05c.58,.04,1.05-.45,1.05-1.05s-.47-1.08-1.05-1.41H1.05c-.58,.33-1.05,.81-1.05,1.41Z"/><path class="cls-4" d="M480.59,408h-182.55c-9.62,0-17.41-8.02-17.41-17.91V17.92c0-9.89,7.8-17.92,17.41-17.92h182.55c9.62,0,17.41,8.02,17.41,17.92V390.09c0,9.89-7.8,17.92-17.41,17.92ZM283.01,17.74V389.44c0,8.89,7.01,16.1,15.65,16.1h182.1c8.64,0,15.65-7.21,15.65-16.1V136.7C496.41,62.11,437.64,1.64,365.14,1.64h-66.48c-8.64,0-15.65,7.21-15.65,16.1Z"/><g><text class="cls-9" transform="translate(312.7 162.88)"><tspan class="cls-10" x="0" y="0">L</tspan><tspan x="5.5" y="0">o</tspan><tspan class="cls-1" x="12.08" y="0">r</tspan><tspan x="15.89" y="0">em </tspan><tspan x="5.33" y="14.4">ipsu</tspan></text><ellipse class="cls-4" cx="446.49" cy="161.76" rx="21.19" ry="21.8"/><ellipse class="cls-4" cx="389.7" cy="161.76" rx="21.19" ry="21.8"/></g><ellipse class="cls-4" cx="332.91" cy="224.43" rx="21.19" ry="21.8"/><ellipse class="cls-4" cx="446.49" cy="224.43" rx="21.19" ry="21.8"/><ellipse class="cls-4" cx="389.7" cy="224.43" rx="21.19" ry="21.8"/><ellipse class="cls-4" cx="332.91" cy="287.1" rx="21.19" ry="21.8"/><ellipse class="cls-4" cx="446.06" cy="349.66" rx="21.19" ry="21.8"/><ellipse class="cls-4" cx="361.76" cy="349.66" rx="49.88" ry="21.8"/><ellipse class="cls-4" cx="446.49" cy="287.1" rx="21.19" ry="21.8"/><ellipse class="cls-2" cx="389.7" cy="287.1" rx="21.19" ry="21.8"/><path class="cls-2" d="M393.95,25.4H191.19c-6.02,0-10.89,5.02-10.89,11.21V113.32c0,6.19,4.88,11.21,10.89,11.21h202.76c6.02,0,10.89-5.02,10.89-11.21V36.61c0-6.19-4.88-11.21-10.89-11.21Z"/><path class="cls-7" d="M393.95,25.4H191.19c-6.02,0-10.89,5.02-10.89,11.21V113.32c0,6.19,4.88,11.21,10.89,11.21h202.76c6.02,0,10.89-5.02,10.89-11.21V36.61c0-6.19-4.88-11.21-10.89-11.21Zm-.45,97.49H190.84c-5.38,0-9.75-4.49-9.75-10.03V36.25c0-5.54,4.36-10.03,9.75-10.03h202.66c5.38,0,9.75,4.49,9.75,10.03V112.86c0,5.54-4.36,10.03-9.75,10.03Z"/><path class="cls-2" d="M202.52,71.28h180.08c1.71,0,3.09,1.47,3.09,3.28h0c0,1.81-1.38,3.28-3.09,3.28H202.52c-1.71,0-3.09-1.47-3.09-3.28h0c0-1.81,1.38-3.28,3.09-3.28Z"/><g><g><polygon class="cls-5" points="59.98 163.85 58.18 174.91 74.18 214.97 82.77 210.43 74.41 172.94 73.21 158.63 59.98 163.85"/><path class="cls-2" d="M77.65,101.64s-8.38-4.18-14.88,9.94c-6.5,14.11-5.7,45.06-5.7,45.06,0,0-2.37,2.32-.86,3.94,1.5,1.62,2.9,4.2,1.37,7.17-.81,1.57-2.68,4.63,.38,5.5,3.06,.87,17.39-3.24,17.39-3.24,0,0,5.36-2.47,2.31-4.13-3.04-1.66,1.24-11.72,1.24-11.72l3.54-29.06-4.8-23.46Z"/><ellipse class="cls-5" cx="81.08" cy="219.72" rx="6.39" ry="11.01" transform="translate(-57.93 31.23) rotate(-16.15)"/></g><g><polygon class="cls-5" points="163.55 401.95 171.57 399.74 167.09 366.85 155.25 370.12 163.55 401.95"/><path class="cls-8" d="M190.99,394.18h0c.36,.36,.86,1.72,.99,2.23h0c.4,1.55-.49,3.14-1.99,3.55l-24.84,6.86c-1.03,.28-2.08-.34-2.36-1.4l-.28-1.06s-2.06-2.86-.56-7.5c0,0,3.95,2.22,7.39-3.91l.71-2.97,12,4.78,5.74-.83c1.26-.18,2.29-.66,3.2,.25h0Z"/></g><g><polygon class="cls-5" points="84.75 401.45 93 401.45 96.93 368.68 84.75 368.68 84.75 401.45"/><path class="cls-8" d="M113.22,401.87h0c.26,.45,.4,1.89,.4,2.42h0c0,1.6-1.26,2.9-2.82,2.9h-25.72c-1.06,0-1.92-.89-1.92-1.98v-1.1s-1.27-3.31,1.35-7.39c0,0,3.26,3.2,8.12-1.81l1.43-2.67,10.38,7.81,5.76,.73c1.26,.16,2.38-.02,3.02,1.1h0Z"/></g><path class="cls-8" d="M140.2,205.44l21.84,96.85,10.54,78.26-16.57,2.32-45.94-133.27-10.54,133.27-18.83,1.55s-15.06-158.06-8.28-177.43l67.77-1.55h0Z"/><g><polygon class="cls-5" points="166.19 90.91 173.73 82.81 182.38 40.42 172.8 39.21 159.23 75.05 152.4 87.57 166.19 90.91"/><path class="cls-2" d="M117.59,132.14s7.05,13.38,20.14,5.47c13.09-7.91,26.93-39.05,26.93-39.05,0,0,2.76-7.92,5.66-9.49,1.52-.83,5.44-1.72,3.39-4.21s-16.85-7.94-16.85-7.94c0,0-5.78-1.06-4.17,2.08,1.61,3.14-3.67,1.19-3.14,4.51,.53,3.32-4.29,4.46-4.29,4.46l-27.66,44.16h0Z"/><ellipse class="cls-5" cx="179.27" cy="32.5" rx="11.01" ry="6.39" transform="translate(97.99 195.57) rotate(-73.78)"/></g><path class="cls-2" d="M118.53,86.02h-20.62l-.83,6.69s-26,7.36-25.35,11.37,4.55,70.9,4.55,70.9l-3.25,33.44s58.51,25.42,67.61-4.68l-4.55-34.78s11.05-59.53,8.45-62.2c-2.6-2.68-24.05-13.38-24.05-13.38l-1.95-7.36h0Z"/><ellipse class="cls-5" cx="106.55" cy="66.83" rx="18.51" ry="19.04"/><path class="cls-8" d="M120.26,59c2.36-.21,4.73-.41,7.09-.62-.81-.38-1.66-.79-2.2-1.53-.54-.73-.65-1.89,0-2.52,.76-.73,2.03-.34,2.87,.3-.46-2.47-1.89-4.74-3.9-6.17-2.46-1.75-8.53,.34-11.5-.06-3.42-.46-3.84-3.46-7.26-3.92-1.29-.17-2.74-.31-3.75,.53-1.12,.93-1.25,2.68-2.24,3.76-1.42,1.54-3.84,1.08-5.85,1.52-2.85,.61-5,3.19-6,6-.99,2.82-1.03,5.88-1.06,8.88-.03,3.36-.04,7.25,2.32,9.57,1.44,1.41,5.36,6.26,5.78,8.26,.3,1.42,12.56,3.15,15.22,3.07l9.06-3.07c.89-4.03-.58-12.01-2.7-15.53,.7,.95,3.92,3.8,4.41,2.72,.49-1.07,.27-4.44,.88-5.45,.77-1.27-2.64-5.63-1.19-5.76h0Z"/></g></g></g></svg>