<?xml version="1.0" encoding="UTF-8"?><svg id="Layer_2" xmlns="http://www.w3.org/2000/svg" viewBox="0 0 848.09 510.98"><defs><style>.cls-1{fill:#e3e3e3;}.cls-2{fill:#fff;}.cls-3{fill:#f1f1f1;}.cls-4{fill:#ffb7b7;}.cls-5{fill:#ffb5b5;}.cls-6{fill:#e5e5e5;}.cls-7{fill:#9d616a;}.cls-8{fill:#3f3d56;}.cls-9{fill:#2f2e41;}</style></defs><g id="Layer_1-2"><g><path class="cls-3" d="M57.36,386.05c-4.05,0-8.1,.15-12.06,.45l-.58,.04C18.45,388.62-.77,400.65,.02,414.53l.15,2.51c.1,1.59,.21,3.29,.3,5.18,.05,.93,1.47,1.65,3.25,1.65H649.94c45.56-.25,90.96-.56,134.92-.92,8.25,.02,16.49-.37,24.68-1.14,12.22-1.29,20.7-3.85,25.93-7.82h0c6.5-4.93,6.71-11.13,6.31-18.14-.8-14.16-1.6-29.03-2.39-43.85-.7-13.07-1.4-26.1-2.09-38.58-.43-7.4-1.39-13.94-8.77-18.94-8-5.4-22.6-8.14-43.39-8.14-.25,0-.5,0-.75,0-65.14,.21-129.69,20.21-160.61,49.77-3.56,3.4-6.88,7.05-10.09,10.57-4.74,5.21-9.64,10.59-15.49,15.4-3.17,2.64-6.59,5.03-10.24,7.12-.25,.16-.54,.32-.84,.48-.7,.4-1.42,.79-2.13,1.14-4.15,2.14-8.52,3.91-13.05,5.3l-.46,.14c-.34,.11-.72,.22-1.09,.32-2.62,.75-5.34,1.4-8.06,1.92-11.79,2.32-25.19,2.88-39.84,1.65-13.45-1.15-26.73-3.57-39.61-7.21-13.56-3.83-26.26-8.6-38.53-13.21-5.39-2.03-10.97-4.12-16.54-6.11-1.05-.37-2.08-.74-3.12-1.1-6.8-2.37-12.97-4.32-18.86-5.98-14.58-4.12-29.67-6.61-44.94-7.43-16.2-.79-30.48,.7-42.43,4.43-3.29,1.02-6.5,2.26-9.6,3.69-14.15,6.56-22.87,16.24-31.31,25.61-10.49,11.65-21.34,23.69-42.77,29.94-24.72,7.21-60.81,4.22-86.34-.99-8.03-1.64-16.04-3.52-23.8-5.35-3.13-.74-6.27-1.47-9.4-2.19-6.16-1.42-11.21-2.51-15.87-3.43l-1.48-.29c-.82-.16-1.64-.32-2.48-.47-5.54-1.04-10.7-1.86-15.79-2.5l-1.2-.16c-2.41-.28-4.66-.52-6.88-.72l-.88-.08c-4.33-.37-8.81-.55-13.31-.55Z"/><path class="cls-6" d="M722.58,399.35c18-14.49,44.78-21.77,67.24-13.65-23.04,11.42-40.82,29.75-50.18,51.75-3.58,8.5-6.56,18.28-15.36,22.82-5.47,2.83-12.28,2.97-18.42,1.6-6.14-1.37-11.76-4.11-17.31-6.82l-1.58-.03c7.09-20.69,17.59-41.2,35.6-55.68Z"/><path class="cls-2" d="M789.7,386.15c-19.89,2.3-38.47,10.13-53.1,22.39-3.2,2.59-5.92,5.61-8.07,8.96-1.97,3.32-2.91,7.05-2.72,10.81,.1,3.5,.65,7.08-.21,10.54-.95,3.57-3.56,6.62-7.18,8.37-4.4,2.26-9.44,2.97-14.4,3.51-5.5,.6-11.23,1.15-16,3.91-.58,.33-1.12-.49-.55-.82,8.29-4.8,18.78-3.05,27.69-6.25,4.16-1.49,7.84-4.12,9.14-8.08,1.14-3.47,.57-7.15,.44-10.7-.24-3.66,.52-7.32,2.22-10.66,1.95-3.43,4.54-6.55,7.65-9.2,6.91-6.08,14.85-11.16,23.53-15.04,9.88-4.48,20.54-7.42,31.53-8.69,.68-.08,.69,.88,0,.95h0Z"/><path class="cls-2" d="M741.05,404.34c-4.07-5.1-3.4-12.08,1.58-16.5,.49-.43,1.26,.23,.77,.66-4.65,4.1-5.26,10.61-1.43,15.35,.4,.5-.52,.98-.92,.49h0Z"/><path class="cls-2" d="M725.49,426.53c6.84,1.08,13.88-.18,19.72-3.53,.58-.33,1.13,.49,.55,.82-6.09,3.47-13.42,4.77-20.53,3.63-.68-.11-.41-1.03,.26-.92Z"/><path class="cls-2" d="M768.12,390.66c1.1,2.23,3.37,3.82,6.06,4.23,.68,.1,.41,1.03-.26,.92-2.97-.46-5.48-2.21-6.72-4.66-.14-.23-.06-.51,.18-.65,.25-.13,.58-.06,.73,.16h0Z"/><path class="cls-6" d="M814.56,455.57c-.43-.05-.85-.1-1.28-.15-5.73-.68-11.51-.94-17.29-.78-.45,0-.9,.02-1.35,.03-13.92,.51-27.61,3.32-40.37,8.3-5.08,1.98-9.98,4.31-14.66,6.96-6.47,3.66-13.15,8.08-20.38,9.57-.75,.16-1.52,.28-2.28,.36l-29.87-23.09c-.04-.08-.08-.16-.12-.24l-1.24-.87c.23-.15,.47-.3,.7-.46,.13-.09,.27-.17,.41-.26,.09-.06,.18-.11,.26-.17,.03-.02,.06-.04,.09-.05,.08-.06,.16-.1,.23-.15,1.36-.86,2.72-1.71,4.1-2.55t.02,0c10.4-6.52,21.63-11.91,33.46-16.06,.35-.12,.72-.25,1.08-.35,5.33-1.77,10.8-3.14,16.38-4.12,3.06-.52,6.14-.91,9.24-1.15,8.01-.62,16.08-.11,23.91,1.51,15.61,3.23,29.89,10.89,38.35,22.82,.22,.31,.43,.61,.64,.92Z"/><path class="cls-2" d="M814.16,455.85c-17.43-8.86-37.55-12.59-57.49-10.67-4.3,.35-8.51,1.3-12.49,2.82-3.81,1.59-7.08,4.06-9.46,7.16-2.29,2.85-4.25,6-7.27,8.31-3.17,2.34-7.31,3.37-11.37,2.82-5.03-.56-9.54-2.7-13.86-4.94-4.8-2.48-9.74-5.12-15.41-5.48-.69-.04-.57-.99,.11-.95,9.85,.63,17.05,7.66,26.33,9.9,4.33,1.04,9.03,.93,12.75-1.54,3.25-2.16,5.28-5.4,7.57-8.31,2.27-3.05,5.35-5.56,8.96-7.31,3.87-1.69,8.04-2.79,12.32-3.23,9.62-1.14,19.38-.93,28.93,.64,10.91,1.73,21.4,5.12,31.03,10.01,.6,.3-.04,1.07-.64,.77h0Z"/><path class="cls-2" d="M763.05,444.23c.19-6.26,5.43-11.48,12.38-12.32,.68-.08,.85,.86,.17,.94-6.48,.78-11.35,5.65-11.49,11.48-.02,.61-1.08,.51-1.06-.1h0Z"/><path class="cls-2" d="M735.67,453.58c4.73,4.54,11.2,7.32,18.12,7.79,.69,.05,.57,.99-.11,.95-7.2-.5-13.93-3.4-18.84-8.14-.47-.45,.37-1.05,.83-.6Z"/><path class="cls-2" d="M793.89,447.86c-.63,2.37,.12,4.86,1.99,6.63,.47,.45-.36,1.04-.83,.6-2.06-1.96-2.89-4.71-2.22-7.33,.04-.26,.3-.44,.59-.42,.29,.03,.5,.26,.47,.53h0Z"/><path class="cls-6" d="M251.28,413.76c14.74-19.97,41.11-34.41,67.67-31.3-21.08,17.94-34.38,41.96-37.54,67.81-1.18,9.97-1.32,21.18-9.31,28.23-4.97,4.39-12.21,6.23-19.2,6.29-6.99,.06-13.86-1.47-20.64-2.99l-1.7,.36c1.13-23.89,5.98-48.43,20.72-68.4Z"/><path class="cls-2" d="M318.95,382.96c-20.56,7.4-37.99,20.39-49.81,37.14-2.62,3.56-4.59,7.48-5.84,11.59-1.08,4.04-.92,8.27,.45,12.24,1.2,3.72,2.9,7.41,3.06,11.33,.1,4.06-1.75,7.96-5.07,10.73-4,3.51-9.17,5.52-14.3,7.33-5.7,2.01-11.65,4.02-15.89,8.15-.51,.5-1.35-.24-.84-.74,7.37-7.19,19.13-7.93,27.67-13.57,3.98-2.63,7.1-6.35,7.26-10.91,.14-3.99-1.62-7.79-2.86-11.55-1.4-3.85-1.73-7.96-.94-11.95,1.01-4.16,2.81-8.13,5.32-11.75,5.5-8.22,12.41-15.63,20.48-21.93,9.17-7.24,19.66-13.03,31.01-17.12,.7-.25,1.01,.77,.31,1.02h0Z"/><path class="cls-2" d="M272.59,414.51c-5.94-4.45-7.4-12.08-3.45-18.03,.39-.58,1.42-.07,1.03,.51-3.69,5.54-2.31,12.66,3.25,16.77,.58,.43-.25,1.18-.83,.75h0Z"/><path class="cls-2" d="M262.87,442.11c7.65-.54,14.79-3.64,19.99-8.67,.52-.5,1.36,.24,.84,.74-5.43,5.23-12.87,8.44-20.83,8.98-.76,.05-.76-1,0-1.05h0Z"/><path class="cls-2" d="M297.29,393.15c1.87,2.11,4.8,3.25,7.8,3.01,.76-.06,.76,.99,0,1.05-3.32,.24-6.55-1-8.64-3.32-.22-.21-.22-.53,0-.75,.23-.21,.6-.21,.83,0h0Z"/><path class="cls-6" d="M367.17,451.03c-.47,.05-.94,.1-1.42,.16-6.34,.7-12.61,1.85-18.74,3.46-.48,.12-.96,.24-1.43,.37-14.73,4-28.49,10.41-40.6,18.9-4.81,3.38-9.33,7.09-13.52,11.08-5.78,5.52-11.55,11.91-18.82,15.3-.75,.36-1.53,.68-2.33,.96l-39.14-17.28c-.07-.08-.14-.15-.21-.23l-1.6-.63c.2-.22,.41-.44,.61-.66,.12-.13,.24-.25,.35-.38,.08-.08,.16-.17,.23-.25,.03-.03,.05-.06,.08-.08,.07-.08,.14-.15,.2-.22,1.18-1.25,2.38-2.5,3.59-3.75t.02-.01c9.22-9.45,19.41-18.3,30.78-25.49,.34-.22,.69-.44,1.05-.65,5.14-3.21,10.58-6.05,16.24-8.47,3.11-1.32,6.28-2.5,9.52-3.53,8.37-2.65,17.16-4.11,26.04-4.32,17.7-.42,35.36,4.22,48.13,14.88,.33,.27,.64,.54,.97,.82Z"/><path class="cls-2" d="M366.84,451.44c-21.41-5.15-44.08-4.14-64.81,2.87-4.49,1.44-8.7,3.5-12.48,6.11-3.58,2.65-6.31,6.11-7.89,10.01-1.56,3.62-2.68,7.48-5.19,10.69-2.66,3.29-6.76,5.42-11.29,5.84-5.56,.65-11.04-.52-16.36-1.84-5.91-1.46-12.02-3.06-18.19-2.03-.75,.12-.92-.92-.17-1.04,10.73-1.78,20.62,3.96,31.24,4.04,4.95,.04,9.95-1.25,13.16-4.81,2.8-3.11,3.96-7.09,5.5-10.76,1.48-3.83,3.99-7.28,7.3-10.05,3.61-2.77,7.73-4.98,12.17-6.52,9.93-3.61,20.44-5.81,31.14-6.5,12.2-.86,24.48,.16,36.3,3,.73,.18,.29,1.15-.44,.98h0Z"/><path class="cls-2" d="M308.55,451.7c-1.75-6.74,2.23-13.63,9.4-16.26,.7-.26,1.18,.71,.48,.96-6.69,2.44-10.38,8.86-8.71,15.14,.17,.66-.99,.81-1.17,.15h0Z"/><path class="cls-2" d="M282.18,468.51c6.47,3.68,14.26,5.05,21.81,3.83,.75-.12,.92,.92,.17,1.04-7.86,1.26-15.96-.18-22.69-4.02-.64-.37,.07-1.21,.7-.85Z"/><path class="cls-2" d="M342.67,447.93c.07,2.69,1.64,5.17,4.2,6.6,.65,.36-.06,1.2-.7,.85-2.81-1.59-4.56-4.32-4.66-7.29-.04-.29,.18-.55,.5-.6,.32-.04,.62,.16,.67,.44Z"/><path class="cls-5" d="M356.2,264.07c3.7-3.28,3.71-8.62,.03-11.92-.39-.35-.82-.67-1.27-.96l15.41-66.58-16.62,4.68-12.4,64.41c-2.72,4-1.29,9.21,3.19,11.64,3.75,2.03,8.57,1.5,11.66-1.28h0Z"/><path class="cls-6" d="M391.81,86.1l-10.3-6.94s-9.08-.57-10.69,14.05c-1.61,14.63-11.68,70.76-11.68,70.76l-15.76,65.16,21.81,4.27,16.88-70.32,16.89-48.51-7.15-28.48Z"/><path class="cls-8" d="M383.97,206.67l-49.39-34.29c-1.6-1.11-1.89-3.18-.65-4.61l33.61-38.59c1.25-1.43,3.56-1.69,5.16-.58l49.39,34.29c1.6,1.11,1.89,3.18,.65,4.61l-33.61,38.59c-1.25,1.43-3.56,1.69-5.16,.58Z"/><path class="cls-2" d="M383.7,203.13l-45.2-31.38c-1.42-.99-1.68-2.82-.57-4.09l30.46-34.98c1.11-1.27,3.16-1.5,4.58-.51l45.2,31.38c1.42,.99,1.68,2.82,.57,4.09l-30.46,34.98c-1.11,1.27-3.16,1.5-4.58,.51Z"/><path class="cls-1" d="M344.42,170.85c-.36-.25-.42-.71-.14-1.02l15.37-17.65c.28-.32,.79-.38,1.15-.13,.36,.25,.42,.71,.14,1.02h0l-15.37,17.65c-.28,.32-.79,.37-1.15,.13Z"/><path class="cls-1" d="M346.97,172.62c-.36-.25-.42-.71-.14-1.02l15.37-17.65c.28-.32,.79-.38,1.15-.13,.36,.25,.42,.71,.14,1.02l-15.37,17.65c-.28,.32-.79,.37-1.15,.13Z"/><path class="cls-1" d="M358.22,164.39c-.36-.25-.42-.71-.14-1.02l6.66-7.65c.28-.32,.79-.38,1.15-.13,.36,.25,.42,.71,.14,1.02h0l-6.66,7.65c-.28,.32-.79,.37-1.15,.13Z"/><path class="cls-1" d="M361.66,179.4c-.36-.25-.42-.71-.14-1.02l24.26-27.86c.28-.32,.79-.38,1.15-.13,.36,.25,.42,.71,.14,1.02h0l-24.26,27.86c-.28,.32-.79,.37-1.15,.13Z"/><path class="cls-1" d="M364.2,181.17c-.36-.25-.42-.71-.14-1.02l24.26-27.86c.28-.32,.79-.38,1.15-.13,.36,.25,.42,.71,.14,1.02l-24.26,27.86c-.28,.32-.79,.37-1.15,.13Z"/><path class="cls-1" d="M369.99,185.19c-.36-.25-.42-.71-.14-1.02l24.26-27.86c.28-.32,.79-.38,1.15-.13,.36,.25,.42,.71,.14,1.02l-24.26,27.86c-.28,.32-.79,.37-1.15,.13Z"/><path class="cls-1" d="M372.53,186.96c-.36-.25-.42-.71-.14-1.02l24.26-27.86c.28-.32,.79-.38,1.15-.13,.36,.25,.42,.71,.14,1.02l-24.26,27.86c-.28,.32-.79,.37-1.15,.13Z"/><path class="cls-1" d="M378.32,190.97c-.36-.25-.42-.71-.14-1.02l24.26-27.86c.28-.32,.79-.38,1.15-.13,.36,.25,.42,.71,.14,1.02h0l-24.26,27.86c-.28,.32-.79,.37-1.15,.13Z"/><path class="cls-1" d="M380.86,192.74c-.36-.25-.42-.71-.14-1.02l24.26-27.86c.28-.32,.79-.37,1.15-.12,.35,.25,.42,.7,.14,1.02l-24.26,27.86c-.28,.32-.79,.37-1.15,.13Z"/><ellipse class="cls-2" cx="340.31" cy="224.8" rx=".34" ry=".3"/><path class="cls-9" d="M389.17,18.82c-1.18,5.66-3.11,11.17-5.76,16.41-15.16,28.63,28.01,19.3,43.43,19.3,16.87,0,33,7.92,30.54-27.27-1.05-15.03-13.67-27.27-30.54-27.27-14.41,0-34.66,5.72-37.67,18.82Z"/><polygon class="cls-5" points="440.17 437.63 425.52 437.63 418.56 387.2 440.17 387.2 440.17 437.63"/><path class="cls-9" d="M450.61,460.55h-10.3l-1.84-8.69-4.71,8.69h-27.33c-3.39,0-6.14-2.46-6.14-5.49,0-1.8,.99-3.49,2.65-4.51l21.83-13.46v-8.78l22.96,1.22,2.89,31.02Z"/><polygon class="cls-5" points="527.93 422.53 516.39 430.18 477.84 394.11 494.85 382.81 527.93 422.53"/><path class="cls-9" d="M548.87,436.32l-8.27,5.49-7.28-5.99,2.03,9.48-21.93,14.56c-2.72,1.81-6.57,1.3-8.6-1.13-1.2-1.45-1.54-3.33-.89-5.04l8.52-22.43-5.87-7.05,19.24-11.25,23.05,23.35Z"/><polygon class="cls-5" points="393.96 213.06 462.17 203.57 448.6 167.13 393.96 167.13 393.96 213.06"/><path class="cls-9" d="M459.29,183.39s27.26,21.03,14.68,80.99l-15.36,58.75,41.84,64.86-21.27,10.36-51.56-63.99-23.59-49.42-12.48-86.61,67.74-14.94Z"/><polygon class="cls-9" points="417.03 299.02 415.39 321.7 420.19 388.84 444.02 396.17 448.54 327.37 417.03 299.02"/><path class="cls-6" d="M410.25,63.35l26.37,.92,10.51,15.57,23.97,4.18-14.31,64.65,2.63,36.8-23.87-.13c-17.2-.09-33.84,5.49-46.72,15.67h0l.71-47.77-10.27-35.66,2.31-37.39,19.29-2.15,9.38-14.7Z"/><ellipse class="cls-5" cx="424.31" cy="32.37" rx="24.81" ry="22.16"/><path class="cls-9" d="M407.46,9.78c13.4-7.3,30.89-3.51,39.07,8.46,2.81,4.12,4.25,8.87,4.15,13.69-12.64,2.83-25.93,5-39.41,.68l-3.18-6.96-1.88,6.96c-4.11,1.5-8.22,2.77-12.34-.01-.34-9.23,4.84-17.92,13.6-22.82Z"/><path class="cls-2" d="M466.87,230.81l3.18,25.79c.46,1.32,1.82,2.22,3.37,2.22h14.67c1.55,0,2.92-.9,3.37-2.22l2.64-19.77c2.66,1.16,5.86,.18,7.17-2.19,1.3-2.37,.2-5.24-2.45-6.4-1.03-.45-2.2-.6-3.33-.41-.67-.7-1.64-1.11-2.68-1.1h-22.57c-1.95,0-3.53,1.41-3.53,3.15,0,.31,.05,.63,.16,.93Zm28.2,2.99l1.7-4.93c.2-.57,.22-1.17,.06-1.75,.07,0,.14-.02,.21-.02,2.22,0,4.02,1.6,4.02,3.58,0,1.98-1.8,3.59-4.01,3.59h0c-.69,0-1.37-.17-1.97-.48Z"/><path class="cls-5" d="M489.21,258.33c-3.68-3.3-3.66-8.64,.03-11.92,.39-.35,.82-.67,1.28-.95l-15.03-66.65,16.6,4.76,12.03,64.47c2.7,4.01,1.24,9.22-3.26,11.62-3.76,2.01-8.58,1.46-11.65-1.33Z"/><path class="cls-6" d="M460.26,89.69l10.3-6.94s9.08-.57,10.69,14.05c1.61,14.63,11.68,70.76,11.68,70.76l15.76,65.16-21.81,4.27-16.88-70.32-16.89-48.51,7.15-28.48Z"/><ellipse class="cls-2" cx="371.39" cy="145.16" rx="5.83" ry="5.2"/><polygon class="cls-5" points="183.44 497.23 195.42 497.23 201.12 455.97 183.44 455.97 183.44 497.23"/><path class="cls-9" d="M183.44,497.23h3.59l14-4.74,7.5,4.74h.74c8.42,0,15.24,6.09,15.24,13.61v.14h-41.08v-13.75Z"/><polygon class="cls-5" points="232.6 492.26 244.45 494.65 260.4 454.98 242.92 451.45 232.6 492.26"/><path class="cls-9" d="M230.45,488.19l3.34,.67,14.22-2.1,5.78,6.13h0c8.21,1.66,13.37,8.94,11.51,16.28l-.11,.43-38.2-7.7,3.47-13.71Z"/><path class="cls-9" d="M165.3,284.41l10.98,109.89s-4.12,65.97,9.16,89.18h19.26l9.54-95.21,1.2-63.9,41.29,53.91-26.3,103.64,23.7,1.89,42.68-112.48-46.89-105.59-84.63,18.66Z"/><ellipse class="cls-4" cx="174.79" cy="83.62" rx="28.33" ry="25.29"/><path class="cls-8" d="M224.59,133.01l-23.24-8.9-11.31-10.71-28.26,4.07-7.5,11.48-24.27,20.15,28.44,114.82-.86,25.08s18.2,7.32,97.14-9.53c.95-.2-1.03-1.09-1.03-1.09l-29.1-145.37Z"/><path class="cls-9" d="M145.34,97.97c-.2-.24-.39-.48-.59-.73-.08,.15-.14,.3-.23,.44l.82,.29Z"/><path class="cls-9" d="M202.97,65.12c-1.89-3.68-5.27-6.6-9.46-8.16-4.15-1.49-8.79-1.49-12.94,.01-3.74-2.11-7.91-3.79-12.29-3.99s-9.02,1.24-11.72,4.44c-.6,.84-1.29,1.64-2.05,2.37-2.17,1.79-5.47,1.54-8.35,1.17,1.29,.99,2.59,1.98,3.88,2.97-1.57,.37-3.13,.73-4.7,1.1,1.83,.99,3.66,1.98,5.48,2.97-5.31,2.84-7.72,9.05-7.08,14.69,.6,5.34,3.49,10.22,6.94,14.56,1.38-2.59,1.08-5.7,1.06-8.62-.02-3.09,.59-6.59,3.36-8.32,1.87-1.16,4.27-1.22,6.52-1.2,11.36,.06,22.72,.69,34,1.9,1.53,.06,3.02,.45,4.35,1.13,2.5,1.52,2.98,4.66,3.23,7.41,1.32-4.54,1.96-9.22,1.92-13.92,.11-3.6-.63-7.18-2.17-10.5Z"/><ellipse class="cls-2" cx="211.79" cy="321.12" rx="44.59" ry="39.81"/><path class="cls-8" d="M211.79,280.43c-2.29,0-4.58,.15-6.85,.46-1.16,.15-2.29,.34-3.41,.58-24.52,5.05-39.81,26.88-34.16,48.77,2.2,8.51,7.4,16.16,14.85,21.83,.76,.58,1.54,1.13,2.34,1.66,20.18,13.43,48.72,9.72,63.77-8.3,15.04-18.01,10.88-43.51-9.29-56.94-7.87-5.24-17.43-8.07-27.25-8.07h0Zm0,79.62c-9.27,0-18.3-2.64-25.76-7.55-.81-.53-1.6-1.08-2.36-1.66-18.39-13.85-20.72-38.4-5.21-54.82,6.33-6.7,15.02-11.3,24.65-13.04,1.11-.2,2.22-.36,3.35-.49,1.77-.2,3.55-.29,5.33-.29,24.08,0,43.59,17.43,43.59,38.93s-19.52,38.93-43.59,38.93h0Z"/><path class="cls-2" d="M233.66,313.84h-43.74c-1.6-.68-2.9-1.84-1.35-3.27v-.13c-1.55-1.43-.26-2.59,1.35-1.18h43.74c1.6-1.41,2.9-.25,6.26,1.18v.13c-3.36,1.43-4.66,2.59-6.26,3.27Z"/><path class="cls-2" d="M233.66,323.01h-43.74c-1.6,.76-2.9-.4-1.35-1.83v-.13c-1.55-1.43-.26-2.59,1.35-2.63h43.74c1.6,.04,2.9,1.2,6.26,2.63v.13c-3.36,1.43-4.66,2.59-6.26,1.83Z"/><path class="cls-2" d="M233.66,332.18h-43.74c-1.6,2.21-2.9,1.05-1.35-.38v-.13c-1.55-1.43-.26-2.59,1.35-4.08h43.74c1.6,1.49,2.9,2.65,6.26,4.08v.13c-3.36,1.43-4.66,2.59-6.26,.38Z"/><polygon class="cls-7" points="712.3 497.23 698.98 497.23 692.65 451.38 712.3 451.38 712.3 497.23"/><polygon class="cls-7" points="650.68 497.23 637.37 497.23 631.04 451.38 650.68 451.38 650.68 497.23"/><path class="cls-9" d="M650.68,510.98h-41.08v-.14c0-7.52,6.83-13.61,15.24-13.61h.74l7.5-4.74,14,4.74h3.59v13.75Z"/><path class="cls-9" d="M712.3,510.98h-41.08v-.14c0-7.52,6.83-13.61,15.24-13.61h.74l7.5-4.74,14,4.74h3.59v13.75Z"/><path class="cls-9" d="M637.85,238.13l-19.36,105.24,5.27,15.68-6.91,11.11,10.15,97.55-4.12,8.1,11.51,3.08h26.56v-85.05l5.13-12.97v-7.15l10.54-53.85,2.17,75.41,3.43,12.99-2.88,9.25,3.76,6.48,9.99,59.48h26.27l-2.03-13.38h0c4.71-2.13,7.2-6.83,6.07-11.43l-1.51-6.13,3.43-18.11,6.24-101.05-1.76-81.53-30.73-20.98-61.23,7.26Z"/><ellipse id="ab6171fa-7d69-4734-b81c-8dff60f9761b" class="cls-7" cx="682.23" cy="81.19" rx="24.41" ry="21.79"/><path class="cls-7" d="M628.9,279.89c4.01-3.7,3.9-9.61-.24-13.19-.44-.38-.92-.73-1.43-1.04l9.49-32.05-18.29,5.49-6.21,29.59c-2.91,4.48-1.21,10.22,3.81,12.82,4.2,2.18,9.52,1.5,12.87-1.63h0Z"/><path id="bc44dde2-a388-4b93-9ca4-c442728432a9-211" class="cls-6" d="M638.89,126.02l-3.92-.73-3.35,1.65s-9.35,11.13-9.35,21.34-11.43,108.53-11.43,108.53l20.78,8.35,16.62-76.99-9.35-62.15Z"/><path id="bf427902-b9bf-4946-b5d7-5c1c7e04535e-212" class="cls-9" d="M703.6,65.21s6.38-10.9-7.66-11.89c0,0-11.97-9.7-24.18-1.77,0,0-6.66,0-10.3,6.73,0,0-5.24-1.77-6.39,2.97,0,0-3.83,9.91,0,18.82,3.83,8.92,5.1,9.91,5.1,9.91,0,0-6.29-18.69,9.03-19.68,15.32-.99,32.47-9.54,33.74,1.36,1.28,10.9,3.2,13.58,3.2,13.58,0,0,12.13-15.56-2.55-20.02Z"/><path class="cls-2" d="M792.76,370.16c-1.84,0-3.62-.6-4.99-1.7l-73.86-58.71c-3.1-2.47-3.38-6.71-.62-9.48l47.32-47.46c2.76-2.77,7.52-3.01,10.62-.55l73.86,58.71c3.1,2.47,3.38,6.71,.62,9.48l-47.32,47.46c-1.32,1.34-3.19,2.14-5.18,2.24-.15,0-.3,.01-.45,.01Z"/><path class="cls-8" d="M792.76,370.59c-1.96,0-3.85-.64-5.31-1.81l-73.86-58.71c-3.3-2.63-3.59-7.14-.66-10.1l47.32-47.46c2.94-2.94,8-3.21,11.31-.59l73.86,58.71c3.3,2.63,3.6,7.14,.66,10.09l-47.32,47.46c-1.41,1.42-3.39,2.28-5.52,2.38-.16,0-.32,.01-.48,.01Zm-26.53-118.74c-1.73,0-3.39,.66-4.54,1.82l-47.32,47.46c-2.23,2.24-2,5.66,.5,7.66l73.86,58.71c2.5,1.99,6.34,1.79,8.57-.44h0l47.32-47.46c2.23-2.24,2.01-5.66-.5-7.66l-73.86-58.71c-1.11-.88-2.55-1.37-4.03-1.37h0Z"/><path class="cls-2" d="M819.54,325.21c-.8,0-1.57-.26-2.16-.73l-57.98-46.08c-1.35-1.06-1.47-2.9-.28-4.1,1.19-1.2,3.25-1.32,4.6-.25h.02l57.98,46.1c1.34,1.07,1.46,2.9,.27,4.1-.62,.62-1.5,.98-2.43,.97Z"/><path class="cls-2" d="M808.48,336.3c-.8,0-1.57-.26-2.16-.73l-57.98-46.08c-1.34-1.07-1.46-2.9-.27-4.1s3.25-1.31,4.6-.24h0l57.98,46.08c1.34,1.07,1.46,2.9,.27,4.1-.62,.62-1.5,.98-2.44,.97h0Z"/><path class="cls-2" d="M797.42,347.4c-.8,0-1.57-.26-2.16-.74l-57.98-46.08c-1.34-1.07-1.46-2.91-.27-4.1s3.25-1.31,4.6-.24l57.98,46.08c1.34,1.07,1.46,2.9,.27,4.1-.62,.62-1.5,.98-2.43,.97h0Z"/><path class="cls-7" d="M732.25,281.78c-2.81-4.5-1-10.18,4.03-12.69,.54-.27,1.1-.49,1.68-.67l.06-33.15,16.09,9.51-2.53,30.02c1.53,5-1.77,10.15-7.37,11.51-4.68,1.14-9.63-.73-11.97-4.53Z"/><path id="f348f81f-b961-4ae4-bc6b-758f6acfb12a-213" class="cls-6" d="M732.61,135.11l7.19-6.19,5.28,3.4s5.19,5.57,9.35,22.26c4.16,16.7,0,108.53,0,108.53l-22.86-2.78,3.12-48.24-9.35-40.82,7.27-36.18Z"/><path class="cls-8" d="M743.22,131.48l-24.21-10.33-16.44-13.62-29.98-.2-9.67,11.23-25.53,7.74,4.26,78.6-2.9,6.04s2.02,1.63,2.94,2.54-1.28,8.55-1.28,8.55l-1.24,8.3,3.44,2.19-4.47,4.72-1.11,7.43s78.05-17.32,92.8,11.37c.78,1.52-1.14-13.3-1.14-13.3l-1.92-10.85,1.9-9.74,2.9-2.59-4.87-4.34,3.12-20.61,13.39-63.15Z"/><path class="cls-4" d="M194.1,304.69c2.27-5.15-.56-10.96-6.33-12.99-.61-.22-1.25-.38-1.9-.5l-5.38-35.27-15.6,12.17,7.5,31.62c-.82,5.51,3.52,10.58,9.69,11.31,5.17,.61,10.13-2.01,12.01-6.35Z"/><path id="e1bf2fad-858c-4bea-9733-320cc40b59f5-214" class="cls-8" d="M133,148.46l-4.23,.72-2.56,2.87s-4.13,14.48,.58,24.59c4.71,10.12,38.75,111.82,38.75,111.82l24.45,.63-19.05-82.46-37.95-58.18Z"/><path class="cls-4" d="M229.4,299.52c-4.26-4.02-4.06-10.36,.45-14.16,.48-.41,1-.77,1.55-1.1l-9.74-34.52,19.55,6.1,6.25,31.84c3.07,4.84,1.15,10.99-4.27,13.72-4.54,2.29-10.24,1.51-13.8-1.9Z"/><path id="ff35f29e-9865-4218-824f-c5cf71e1b056-215" class="cls-8" d="M220.86,134.21l4.22-.74,3.57,1.81s9.88,12.06,9.74,23.01c-.14,10.96,10.73,116.66,10.73,116.66l-22.43,8.73-16.76-82.85,10.92-66.62Z"/></g></g></svg>